<mxfile host="app.diagrams.net" modified="2020-04-15T10:04:29.707Z" agent="5.0 (Windows NT 6.1; Win64; x64) AppleWebKit/537.36 (KHTML, like Gecko) Chrome/80.0.3987.163 Safari/537.36" etag="VD5F4_qScMBBJhCvSEDa" version="12.9.12" type="github">
  <diagram id="UbwVea75g8-xihJDQ6xO" name="Page-1">
    <mxGraphModel dx="1422" dy="713" grid="1" gridSize="10" guides="1" tooltips="1" connect="1" arrows="1" fold="1" page="1" pageScale="1" pageWidth="850" pageHeight="1100" math="0" shadow="0">
      <root>
        <mxCell id="0" />
        <mxCell id="1" parent="0" />
        <mxCell id="ONclmi-p_48liSY1FyFz-48" value="" style="rounded=0;whiteSpace=wrap;html=1;dashed=1;" parent="1" vertex="1">
          <mxGeometry x="360" y="390" width="1030" height="410" as="geometry" />
        </mxCell>
        <mxCell id="ONclmi-p_48liSY1FyFz-12" value="" style="rounded=0;whiteSpace=wrap;html=1;" parent="1" vertex="1">
          <mxGeometry x="60" y="390" width="180" height="410" as="geometry" />
        </mxCell>
        <mxCell id="ONclmi-p_48liSY1FyFz-4" value="&lt;font style=&quot;font-size: 15px&quot;&gt;RDBMS&lt;/font&gt;" style="aspect=fixed;html=1;points=[];align=center;image;fontSize=12;image=img/lib/mscae/SQL_Database_generic.svg;" parent="1" vertex="1">
          <mxGeometry x="126.30000000000001" y="406.82" width="40.4" height="53.16" as="geometry" />
        </mxCell>
        <mxCell id="ONclmi-p_48liSY1FyFz-5" value="" style="shape=image;html=1;verticalAlign=top;verticalLabelPosition=bottom;labelBackgroundColor=#ffffff;imageAspect=0;aspect=fixed;image=https://cdn3.iconfinder.com/data/icons/cad-database-presentation-spreadsheet-vector-fil-2/512/19-128.png" parent="1" vertex="1">
          <mxGeometry x="98" y="516" width="40" height="40" as="geometry" />
        </mxCell>
        <mxCell id="ONclmi-p_48liSY1FyFz-6" value="" style="dashed=0;outlineConnect=0;html=1;align=center;labelPosition=center;verticalLabelPosition=bottom;verticalAlign=top;shape=mxgraph.webicons.adobe_pdf;fillColor=#F40C0C;gradientColor=#610603" parent="1" vertex="1">
          <mxGeometry x="90" y="593" width="42.4" height="40" as="geometry" />
        </mxCell>
        <mxCell id="ONclmi-p_48liSY1FyFz-9" value="HDF5" style="shape=cylinder;whiteSpace=wrap;html=1;boundedLbl=1;backgroundOutline=1;" parent="1" vertex="1">
          <mxGeometry x="158.8" y="511" width="40" height="50" as="geometry" />
        </mxCell>
        <mxCell id="ONclmi-p_48liSY1FyFz-10" value="" style="shape=image;html=1;verticalAlign=top;verticalLabelPosition=bottom;labelBackgroundColor=#ffffff;imageAspect=0;aspect=fixed;image=https://cdn0.iconfinder.com/data/icons/octicons/1024/file-binary-128.png" parent="1" vertex="1">
          <mxGeometry x="170" y="593" width="48" height="48" as="geometry" />
        </mxCell>
        <mxCell id="ONclmi-p_48liSY1FyFz-13" value="Data Sources" style="rounded=0;whiteSpace=wrap;html=1;shadow=1;comic=0;fillColor=#8FA0B3;fontColor=#FFFFFF;fontStyle=1;glass=0;" parent="1" vertex="1">
          <mxGeometry x="60" y="350" width="180" height="30" as="geometry" />
        </mxCell>
        <mxCell id="ONclmi-p_48liSY1FyFz-14" value="Azure Blob Storage" style="aspect=fixed;html=1;points=[];align=center;image;fontSize=12;image=img/lib/mscae/BlobBlock.svg;" parent="1" vertex="1">
          <mxGeometry x="387" y="470" width="119.04" height="100" as="geometry" />
        </mxCell>
        <mxCell id="ONclmi-p_48liSY1FyFz-18" value="ML Studio" style="aspect=fixed;html=1;points=[];align=center;image;fontSize=12;image=img/lib/mscae/Machine_Learning_Studio_Workspaces.svg;" parent="1" vertex="1">
          <mxGeometry x="624" y="522" width="55.41" height="55.41" as="geometry" />
        </mxCell>
        <mxCell id="ONclmi-p_48liSY1FyFz-19" value="Azure Sql Warehouse&lt;br&gt;(MPP)" style="aspect=fixed;html=1;points=[];align=center;image;fontSize=12;image=img/lib/mscae/SQL_DataWarehouse.svg;" parent="1" vertex="1">
          <mxGeometry x="792" y="460" width="156.25" height="150" as="geometry" />
        </mxCell>
        <mxCell id="ONclmi-p_48liSY1FyFz-22" value="Azure Batch Service" style="aspect=fixed;html=1;points=[];align=center;image;fontSize=12;image=img/lib/mscae/Batch_Accounts.svg;" parent="1" vertex="1">
          <mxGeometry x="624.83" y="400" width="69.58" height="66.79" as="geometry" />
        </mxCell>
        <mxCell id="ONclmi-p_48liSY1FyFz-24" value="" style="endArrow=classic;html=1;entryX=0.017;entryY=0.289;entryDx=0;entryDy=0;entryPerimeter=0;exitX=0.501;exitY=0.002;exitDx=0;exitDy=0;exitPerimeter=0;fillColor=#1ba1e2;strokeColor=#006EAF;strokeWidth=2;" parent="1" target="ONclmi-p_48liSY1FyFz-22" edge="1" source="ONclmi-p_48liSY1FyFz-14">
          <mxGeometry width="50" height="50" relative="1" as="geometry">
            <mxPoint x="437" y="470" as="sourcePoint" />
            <mxPoint x="487" y="420" as="targetPoint" />
            <Array as="points">
              <mxPoint x="447" y="419" />
            </Array>
          </mxGeometry>
        </mxCell>
        <mxCell id="ONclmi-p_48liSY1FyFz-25" value="" style="endArrow=classic;html=1;fillColor=#1ba1e2;strokeColor=#006EAF;strokeWidth=2;shadow=1;" parent="1" edge="1">
          <mxGeometry width="50" height="50" relative="1" as="geometry">
            <mxPoint x="506.03999999999996" y="540" as="sourcePoint" />
            <mxPoint x="610" y="540" as="targetPoint" />
          </mxGeometry>
        </mxCell>
        <mxCell id="ONclmi-p_48liSY1FyFz-26" value="" style="endArrow=classic;html=1;exitX=0.493;exitY=1.033;exitDx=0;exitDy=0;exitPerimeter=0;entryX=0.021;entryY=0.48;entryDx=0;entryDy=0;entryPerimeter=0;fillColor=#1ba1e2;strokeColor=#006EAF;strokeWidth=2;shadow=1;" parent="1" source="ONclmi-p_48liSY1FyFz-14" edge="1">
          <mxGeometry width="50" height="50" relative="1" as="geometry">
            <mxPoint x="487" y="660" as="sourcePoint" />
            <mxPoint x="620.9849999999999" y="663.344" as="targetPoint" />
            <Array as="points">
              <mxPoint x="446" y="663" />
            </Array>
          </mxGeometry>
        </mxCell>
        <mxCell id="ONclmi-p_48liSY1FyFz-27" value="" style="endArrow=classic;html=1;entryX=0.377;entryY=0.001;entryDx=0;entryDy=0;entryPerimeter=0;" parent="1" target="ONclmi-p_48liSY1FyFz-19" edge="1">
          <mxGeometry width="50" height="50" relative="1" as="geometry">
            <mxPoint x="669.41" y="420" as="sourcePoint" />
            <mxPoint x="847" y="460" as="targetPoint" />
            <Array as="points">
              <mxPoint x="851" y="420" />
            </Array>
          </mxGeometry>
        </mxCell>
        <mxCell id="ONclmi-p_48liSY1FyFz-28" value="" style="endArrow=classic;html=1;entryX=0.392;entryY=1.003;entryDx=0;entryDy=0;entryPerimeter=0;exitX=0.985;exitY=0.417;exitDx=0;exitDy=0;exitPerimeter=0;fillColor=#1ba1e2;strokeColor=#006EAF;strokeWidth=2;shadow=1;" parent="1" target="ONclmi-p_48liSY1FyFz-19" edge="1">
          <mxGeometry width="50" height="50" relative="1" as="geometry">
            <mxPoint x="674.0050000000001" y="660.0175999999999" as="sourcePoint" />
            <mxPoint x="837" y="680" as="targetPoint" />
            <Array as="points">
              <mxPoint x="853" y="660" />
            </Array>
          </mxGeometry>
        </mxCell>
        <mxCell id="ONclmi-p_48liSY1FyFz-29" value="" style="endArrow=classic;startArrow=classic;html=1;fillColor=#1ba1e2;strokeColor=#006EAF;strokeWidth=2;shadow=1;" parent="1" edge="1">
          <mxGeometry width="50" height="50" relative="1" as="geometry">
            <mxPoint x="703" y="540" as="sourcePoint" />
            <mxPoint x="789" y="540" as="targetPoint" />
          </mxGeometry>
        </mxCell>
        <mxCell id="ONclmi-p_48liSY1FyFz-30" value="Azure Analysis Service" style="shape=image;imageAspect=0;aspect=fixed;verticalLabelPosition=bottom;verticalAlign=top;image=data:image/png,iVBORw0KGgoAAAANSUhEUgAAAOEAAADhCAMAAAAJbSJIAAAAS1BMVEX///85mcYwlsQqlMQfkcKHvdns9fm+2uqz0+VXp82OwdxSpMyWxN32+vyFu9mv0OTg7fWjy+HP5O9vsdN7ttbF3uxkrNDX6PIAib4EScEeAAAIq0lEQVR4nO2d6ZqjKhBAAxKzqDEuSe77P+l1jSBbCZiW+er87FHG02JRlGCfTgiCIAiCIAiCIAiCIAiCICCyHcn/Wm6A7Edy/mu5gR0NKRr+BjREQzT8e9AQDdHw75kuJgnL4Qxp87qE5HU8w/suraLhb0BDn1bR8DegoU+raPgb0NCnVTT8DWjo0yoa/gY0XFFsaTU6w2eeEUqaEmAZpWHaMDoWPFgFbDUuw5pSMpO8bbcxQsMPIxw0A7Uak2FBRGwvP+MzrJKVIksBrcZkuBa0nRGdofgUjgBajchQ6qRdNzWG0+gMcyobGh/E6Awr2bC7/trWakSGV7mXdicx8tBJRmeYKiLNcF6StC/VAxmdoeEtI01oe5Ektxnm2W0/gIYXzU2c72SzkqSbDM+qhyAU0Lz0Lcaa7s6tJd9XLrqSfh4CN1QEsp8bFoS/CnauH5StJRkn+ckJY1EZnops6UpsWFZZn4kseSu/ks8cuvryGIbdoMgmx+w7RnzuijuZVeas/LiG87CYlPzPPnmmknzGaXgaIiptVz99VoStomEnmcMlD2SYTSdJPKtsLdmlPPknOsPxUtTTirSXXPVXRu4QyQMZjg8i0111Wt4UkqYM/XCG40xYDDUryes7kbIBqs3QD2dYDPfQkquk10a6k13y+rIaBl55Rl0Mp1BjqyWeiksj30kpeV0bBl14drk01MWwHVNqQF2/k5TvpEZyMgReA5S7k+FYsGHAoe7Vyhk6EzL0kSMZ1mNWc7Ed971Tr4eiu75LUfJIhuNk3344f6dsGXp3LWO2sNnBjJvhdPjbelh3pziJ+i5LJlyGPqREdLuEEUfDMUAltsOGRhmfwPYTxtWwJ2ToXUq00cCGo+FYV7S8tdDUaZ65lLwmXfK6aRqyAUfD1xhqDMP3gNLw5Juhb0M0BO+FnEKN7S2wzvCkydDp3Zq8bkYwJNn5Yactv9fe9C3ojzwbDE+6DN2SvHoaEgog6WPB7Tt2tYn+ULPhIKnI0BNT8uprCIJ9z+uniIoXUiLWDP29MUP/gWEX9i5jqKnn/Mbd8KTJ0Jk2Q9/fsM/WnuMUsQs1qb+hTlI/DdnbsA+54xSxH8xth0Nr3sWrVd1JOUPf35D0IXSpRjW2wze8e3q1irzuVvpI3l3z+ceYtwV5VATqs6K8vJZMyyaj5A3JEZwNS3M1yoXvb+ujyNCFGno+Rl9K2dt6e50Np2rUdfuZWlpOwpShF7eEU7clCM6GoGrUNs6JMM2QXxRMyWsm/NRWaXA2nPK2m8OZOoY5fsK4n6gz9HXR0dyqu+FUjXI4U4eyivGUM/QViTn/dzfcVo2CoKvTdBn6eqAUFY2tuhtCq1FwDJWoLkPX30lzQHc3nKaIAT+vY661KV4UzPfQ8HrBxxBajYJjrSYO5WXZ0DwR9zBs3E9VA6mXFop1WeZQ42E4ruNLPBNjDlBFWGVoTDs8DC+wahQcgOEnU/RSc8nPwzD9ThEDYX8OH+skh9iv3sNwmiI2TueqsBle1aGUmQcsH8Nb4FBjNvzc1MUEWzT3MVyqUWEwGRbnpYMKt5La3mL6GE4rh4JNEQ2G12WrDiWXnLPNbLHcx9C+YGEbWsNP9l31Sdmju2d1n413MGvV3c9wmiI+nE5WoDHkI2hymzL9Z9W+2xxSHvcxhC5YgKI25DuoS0nByxC+YAGEypAb4il4oaqAl2EZdoooGwodNHP7f7wMP2MwDVWNkgzLZVyg1PV/8TIsgAsWgKwMxQ7q/Ch4GQauRg2GdKpEFe3SQdnN40HwM2xhCxaA9IbzcFDSAB10wM9wqkYFmiKe6SwTqIMO+BkCFywAOU8ywTrogJ8hcMECkGrMcEvPIX6FnyG3YCEU/kP8Ck/Dd+ApYtdBZ78AHXTA0zCHrY2Cwg/xJFAi4Wm4LFgIQMgIuuBp+AxXjdqhgw54Gmq2zzgg5KABX4bM27NV/1S0ZzP9K4ulGlVZjhZ4rIZQRQdN8y0NarnfiNYwZbb1Xyd++0xlPZyDCaUPVQfd1JwJYjIkZvoQumyfeW3Z4yoUd/gOOr2tq1W1bS+cDPtsbalGWQ8XTl0MhQ46TsTSZktbMJwM+2yNW7BgfBW94muo7KDmt9puuBkua6P6alSz4brm51Axi6/JLlu6nQyHZQpLNUrx1QzdefpJ0vwZquC4GfahZlmwcAH+7ukySVpaCjjEw7EbLstLlwWZVr6z+L2G+KCG5bca1Y/+kO41y+yTgwY3XJaXDq+4Mrvf/LT9eQcFGnIhtK9GWfeAskzuoCEX5DgaGpOvgt8+czUnWgmZOiiRhvg/NaRNruee8tWo9G44NM+rg0TQtaG1FjSuZIdWo6q/j6ALQMPpIzSgalQt5KB/FEEXoIbgatRBIih3QUDDHLhg4VAddABqCKtGHayDDkANIdUofsZ3iA46ADXkts/oOF4HHQAbGmo9A7U8xKfhd1I6ADY8G7fPqCJoxYItwvEBbGj8mEvFpA7a3dNwy4x8ABsats8oIugQdCIz1G6fUUXQYrinkRnqFizwEZTMETRVfCjsr4AbKhcsiBH0G4biNFRsn9EO8XEa1tKCBf0QH6fhWI0it3lnnWKIX1qN0jCddBL2/thy0CgNP9yWTlZxQ3xC5Bw0RsPVXxOwTJIiNFz/NQF9Bx1bjc8wV76uoIoOOrYanWGhqhsb6qDxGareOJlm8fEZKt4aGmfx8Rm2sqFxRe0/YchMx8dneFe8cDK2Gp2hvGvVXOCPz1AeLcxnxGc4fagG2kljNCxW3dSyaTVCw1Mt9FPbH7mK0fD04hb5WBefR2nYz3n7qgWljFi3XsRp2G/pbAh5Q77rGKvhhlbR8IegoWOraPhD0NCxVTT8IWjo2Coa/hA0dGwVDX8IGrpRHM6QPq5BGZf2H8mw/6B2UMjhDHcBDX8DGv4Dhv+x/Qj3TVAf0h05xnYEBEEQBEEQBEEQBEGQw/E/OC5+n+KQKuQAAAAASUVORK5CYII=;base64,iVBORw0KGgoAAAANSUhEUgAAAaIAAAGhCAYAAAAjn7DBAAAACXBIWXMAABcRAAAXEQHKJvM/AAATsUlEQVR42u3dT2ibZ57A8Z8s/0lix6Yn5+Kw4OxlsXEGdueiQKYMxNsUcmgucWba7CkNkx52c4ghhRwCU7Bhc2o6aW9OhyawpIdAnUmgyxSiy/6BGBvmsPbFuTgLZZEixbZkSXvIONNOk9aS9ceWP5/LMDOOZB5L7/d93vd53zfx7ddv/DEijgcANN+bHcYAgFYSIgCECAAhAgAhAkCIAECIABAiABAiAIQIAIQIACECACECQIgAQIgAECIAECIAhAgAhAgAIQIAIQJAiABAiAAQIgAQIgCECACECAAhAgAhAkCIAECIABAiABAiAIQIACECACECQIgAQIgAECIAECIAhAgAhAgAIQIAIQJAiABAiAAQIgAQIgCECACECAAhAgAhAkCIAECIABAiABAiAIQIAIQIACECACECQIgAQIgAECIAECIAhAgAhAgAIQJAiABAiAAQIgAQIgCECACECAAhAgAhAkCIAECIABAiABAiAIQIAIQIACECACECQIgAQIgAECIAECIAhAgAhAgAIQIAIQJAiABAiAAQIgAQIgCECACECAAhAkCIDAEAQgSAEAGAEAEgRAAgRAAIEQAIEQBCBABCBIAQAYAQAdB2Og1Ba6TnNuLR42Isr5TjydNyZHKVWFgqGRhogv7eRIweSUZ/XyJGh5MxeqQzRoaTcfiQfXMhamPLK+WYTRdjNl2I9NyGAYEWyuYrL7+H99PFl//70GBHnEx1xbGjXXEy1WWgmiTx7ddv/DEijhuKxrj9oBC3H6yLD+wyQ4MdMTHeHRPjPWZKjfWmEDUwQFMzq/HkadlgwC535kR3TJ7bL0gNCpFRrbPZdDGOns3EB9N5EYI2cedhIX72q0xMzaxGJlcxIHUmRHWSyVXi11dz8e7VnABBm5q+tRbHz2cdaheinTsL+u5JT6A9PXlajlOXnsWVG88NhhDtDFMzq/Hu1Vxk86brsJd8+uV6HD+fdahOiFrr4lQ+pm+tGQjYoxaWSnH0bCbmF10DKERNtnk+6M7DgsGAPS6br8SpS8/ESIia68qN584HAWJUJ+6sUKWLU/mGzIRSYy/+FCPDyRjoSxhoaJD5pVJkc5WYXyzV9dzuZowefzHgOyxEjXPz7nrdIjQynIyJ8Z5IjXXG6JGkwYUWWF4pv7zv42y6uO0wbcbom8/6DW4V3Flhi9JzG3Hq0rNtv44rtGFnyuQqcftBIW7eXdv2tYDvv9MTH108YFC3xi1+tvoBPX4+u60P51uprvjoNwcECHaBm3fXY2pmdVszpM+v9blx6hZDZKu4Bdu5Z1x/byI+v9YXv7/WJ0KwS1w43RPffNb/8txtLS5O5V1jtEW2jD9hfrEUn365XtO/HRlOxuMvBuwVwS50+FBH3Lt+MC6/t6+mf5/NV2JqZtVACtH2ffhJbbfxeCvVFfeuH7R6Bna5yXP74+PLvTX920+/XI/lFfeeFKJtSM9t1HRzw9RYZ/z+Wp8IQZuYGO+uOUZmRUK0LbV8gEaGk/H5tT6DB20Yo1oO0915WDArEqLabF5fUI3+3kR8fLnXTAja1OS5/TUtYLh51z0phagGtXxwJs/td3EqtLnPr/VFf291O5u3H7gvpRDVoNoPTmqsMy6c7jFw0OYG+hIxeW5/Vf8mm6/ErPtTClE10nMbVV/IVu0HE9i9LpzuiaHB6jafXz0yKxKiBn5gUmOd27rwDdh9qt359HhxIarKwlJ1t3KfGHdIDvaak6muqs4VPXlatnpOiBq35+LOCbD3DPQlqv7umxUJ0ZZU+2Crt1JdlmvDHvX2se6qfn55xYPzhGiL0+dqHBszG4K9qtpzw2ZEQrTFGVF1HxTXDcHeNdCXqHr1HEJUdyPDQgR7WTWPdzEjEqItqXZVi/NDYGcUIaqr7T4iGNhb7IwKEQBCBABCBIAQAYAQASBEACBEAAgRAAgRAEIEAEIEgBABgBABIEQAIEQACBEACBEALdZpCIB6mV8sxWy6EOm5jZf/PZuvRGrsxaYmNdYZo0c642Sqy2AhREB9ZHKVuHl3LW4/KMSTp+VX/sxmmDb/s783ERdO98SF0/s8ahuH5oDazaaLcfRsJqZvrb02Qq+SzVdi+tZaHD2biamZVQMpRADVuziVj3ev5iKbr9T8GptBOnXpWWRyFYMqRAA/LZOrxPHz2bjzsFC310zPbYiREAFscSY0nY+FpVLdX3dhqSRGQgTw46ZmVuN+utiw119YKsXF6byBFiKAH5pfLMX0rbWGv8/9dDFmGxg7hAjYpT785HnT3uvKjecGXIgAvj8b2rwGqBmePC3H7QcFAy9EAC/cfrDe9Pf8Ki1EQgTwZ604Z3M/XbSCTogAIpZXylXdNaGeGrFMHCECdplWRSgi4tFjq+eECNjzHB5DiICWml/cMAgIEQBCBABCBIAQAYAQASBEACBEAAgRAAgRAEIEAEIEgBABgBABIEQAIEQACBEACBEAQgQAQgSAEAGAEAEgRAAQERGdhoB2srxSjoWlUswvbvzg/zt8KBmpsc44fMj+FwgR1FEmV4nbDwpx+8F6LCyVfvLnhwY7YmK8Oy6c3hcDfQkDCC1m15Bd7ebd9Th6NhMffvJ8SxGKiHjytBzTt9bi6NlMTM2sGkQQIqhtFnTq0rP48JPnkc1XanqNbL4S07fW4vj5bCyvlA0qCBFszfxiKY6ezUR6bqMur7ewVIrj57Mxv1gyuCBE8OOWV8px6tKzmmdBPzY7OnXpmRiBEMHrZXKVePdqru4R+m6M3r2ai0yuYrBBiOCHbt5d2/KChFo9eVqOKzeeG2wQIvi+5ZUXK92a4c7DQt3OPwFCRJto9jLr391dM+ggRPBCJleJOw8LTX3P++miJd0gRPDCbLq4p94XhAh2mFfdN64ZHs0JEQgRRDR8pdxr39c1RSBEEBEtO1fz5KlzRCBEIAggRAAgRAAIEQAIEQBCBABCBIAQAUA9dBoC2HmWV8o/uH4qNebrihABDZLJVWI2XYyv0oVIP9547VNohwY74mSqKybGe2L0SNLAIUTA9gN08+5a3Ly7vqVHoD95Wo5Pv1yPT79cj9RYZ0ye22+mxK7nHBG0yPxiKY6fz8b0rbUtReivpec24tSlZ/Hrq7nI5CoGFCECtu72g0L84v1sXe6jdz9djFOXnsW8u4UjRMBWI/TBdL6ur7mwVBIjhAj4abPpYt0jtCmbr8QH03mH6RAi4NUyuUpcnMo39D0WlkpxcTpvsBEi4Ieu3Hhe06KEat1PFyM9t2HAESLgL5ZXynHnYaGp0QMhAl6amllt6vstLJXMihAi4C9m08Wmv+cXf1g38AgR8OLC02acG3rV+4IQAfHocbEl7/vkadlSboQIaK2FJRe4IkSw5zlEBkIEgBABgBABIEQAIEQACBEACBEAQgSAEAGAEAEgRAAgRAAIEQAIEQBCBABCBEC76zQEvM7mA92GBjvi8CH7LIAQ0UDLK+WYTRdjNl2I+cVSZPOVH/zM0GBHpMY64+1j3XEy1WXQACGiPgGamlmNOw8LP/mzT56W487DQtx5WIihwY6YPLc/Jsa7DSKwLY637GFTM6vxs19lthShV0Xpg+l8HD+fjfnFksEEhIity+QqcerSs5i+tbbt11pYKsUv3s/G7QcFAwvUxKG5PRqhhaX6zmI+mM5HRDhUB5gR8ePevZqre4S+G6PZdNEgA0K0HUOD7TskUzOrL5dkN8rFqXwsr5R9kNgzMrmKQRCi+qr2epnd8iFcXinX5ZzQT8nmK3Hlk+c+SOwZjTrCIES03Ydwama1ae91P11s+MwLdtJO3lalxpyWF6ItGD1S3QdlNyxdXl4p17REezu++MO6DxNtL5OrxJOnDkULUZ1Ve47o0dzOPznfigUEdx4WHDun7VU78zcjEqItzoiSVf38/XRxx29wZ9OFXfElhd3mq0fVfbcOH0oaNCFqzF7LTl+y3KogzC8KEe0rk6tU/d03IxKihn1Ybt5d29FfllaZt5qINjabLr7y5sCv4y72QlSVk6nq7g6wsFTasYehWrmqL+scEW2s2pWoZkNCVJXRI8mqFy1cueHaGdhLEap2tdzbx9z+SoiqnhVV97ydhaVS3LxryTK0u+WVctXf9aHBDs/wEqLqXTi9r6a9JI9EgPb2wXS+qnNDEW4GLEQ1Onyoo+pjutl8JT6Yzrt+BtrUlRvPazofPDHeY/CEqDaT5/ZX/W8Wlkpx6tIzMYI2c/tBIT79svrD72dOdFstJ0S1S4111rTSRYyg/SK0+cytZuzQChHf89vfHKjp323GyCMRYHe7cuN5zRG6/N4+syEh2r7RI8l4/53aju8uLJXi+Pmsh8XBLrS8Uo5Tl57VdDgu4sVKuVoWPQkRr51a1/rAvGy+Eu9ezcWvr+bMjmAXyOQqMTWzGsfPZ7d1ofqNyd4Y6EsYUCGqj4G+RHx+rW9br3E/XYyf/SoTF6fylnjDDg7Q0bOZmL61VvUS7e96/50ed1KogpHaotEjyfj4cm/Nx4o33XlYiDsPCzEynIyTqa44drTLBxZaZHmlHOm5jfgqXYj7dTqEPjKcjI8uHjC4QtQYE+Pd8ehxsS4PmVtYKsXCUunl47tHhpMx0JeI/r5EjA4nX/P+PU58wha87j5wyyvll7fmacT9IYcGO+Le9YP+AELUWDcme1/ObOrpuzcnfd2e2bGjXUIEW7C5g9dM/b0vDuE7L1Q9W7UaY3TmhFt2AH+J0L3rB6t+sCZCJEbAtm0ejhMhIWpZjC6/5zoB2KtGhpPxzWf9IiRErTV5bn/cu34w+nsdF4a95P13euKbz/qdExKinSE11hmPvxiItzxvBNre5qE4S7SFaMcZ6EvE76/1xb3rB2u+CwOwc/X3JuLye/vim8/6XfsnRLtjdvTx5V5BgjZx5kR3fPNZf0ye2+9QXAPIeoNMjHfHxHh33H5QiNsP1hty8RzQOEODHTEx3h0XTu8THyFqjyAtr5RjNl2M2XRBlGCHGhlORmqsMybGe6yEE6L2c/hQR1w43RMXTr94pER6biPmF0uxvFJ6eVcFgYLmBWegLxFDgx1x+FBHjB558RBMMx8h2lNqffor8NO+/foNg7CLOJsOgBABIEQAIEQACBEACBEAQgQAQgSAEAGAEAEgRAAgRAAIEVCl/l1+R+djR7v8EREiajcy3LpnqtRrA7zb71I+Ouy5NrUa6LOJEiLa4Ivcur3xem2AWzWjqFcAW7kxrceOSCt3ZjycTohoE62aUYweqc/7tmpGUa8NcKvGf2iwoy47IgN9iZbFyDO7hIg2cTLVvas3Iq36/et1bmT0SDL6exMt+Lt37cjX2qq3Us5NCRFtFKLmf6HPnOiu22HB0SPJGBps7ke1vzdR13GbGG9+TCfGe3bka23V2Ra8J0JEgxw+1BFnTjR3Q3j2H+u7EZk8t7+pv/+F0z11fr19TZ+N1vP8SrM/QyPDyZbsQCFENFAzN+Spsc66H9ufGO9u2qyovzdR93A0e0PeiL/35Ln9TTvE+NHFA760QkQ7zoouv9f4vfL+3kR8fLm3Ia99Y7K3KWN1Y7K3IasNP7p4oCkb8vff6WnISf7DhzqaEohG/f4IETtkVtToL/iNyd44fKgxH6vUWGfDY3rmRHfDDgkN9CXi3vWDDf39R4aTDZ39Tox3N3RmlxrrNBsSItrd59f6GrYU9+PLvQ0/rj95bn/DNoRnTnQ3fNY1eiTZsBnjyHAy7l0/2PBrx25M9jbkbzAynIzPr/X5ku5Byclz+/8pIv7GUOwN+7oT8c6b3fFff9qIJ0/LdY1Qs1aGvX2sOzK5Svz3n0q7KkLfjdHokc74+j+KsV7cXRH67t9goK8j/v0/i3Ub/3+bOhj7uhO+pHvPjBDt0RhtLsdNz21s67WGBjvi3vWD8cufN3eF0y9/3lWXjXl/byL+9V96m74q728PJ+OX/9AV//Wnjfjf/6ts67Xef6enYee1fszf/11nnEx1x/88KdW8UzM02BE3Jnvjnyf2+WLu4RAlvv36jT9GxHFjsTctr5RjamY17jwsVL0BmRjvbvoG/K9lcpW4eXctbt5dj2y+ug36mRPd8dHFAy29DVJExO0HhZiaWa16Y54a64zf/ubAjrgNTnpuI353dy3up7e2VzAynIwLp/e15Poqdpw3hYiXQZpNF2M2XXjtLGlosCNSY53x9rHuHXeNRyZXidl0Mb5KF2Jh8dV76P29iUgd7Yy3Uy9+/4Eddlfs2XQxvnpUiIWlUiwslV4bn5N//v0btShku3+H9NxGzC9uxPxSKbK5yvd+98OHkn/+T6enESK2uJe7uQHfjTefnF8svZwl7cblwMsr5ZdBHRlO7rhwghAB0BYhMj8GoKWECAAhAkCIAECIABAiABAiAIQIAIQIACECACECQIgAQIgAECIAECIAhAgAhAgAIQIAIQJAiABAiAAQIgAQIgCECACECAAhAgAhAkCIAECIABAiABAiAIQIAIQIACECQIgAQIgAECIAECIAhAgAhAgAIQIAIQJAiABAiAAQIgAQIgCECACECAAhAgAhAkCIAECIABAiABAiAIQIAIQIACECACECQIgAQIgAECIAECIAhAgAhAgAIQIAIQJAiAAQIgAQIgCECACECAAhAgAhAkCIAECIABAiABAiAIQIAIQIACECACECQIgAQIgAECIAECIAhAgAhAgAIQIAIQJAiABAiAAQIgAQIgB2okSlUjEKALTM/wMbIkVKSDtrrwAAAABJRU5ErkJggg==;" parent="1" vertex="1">
          <mxGeometry x="1053" y="485" width="107" height="107" as="geometry" />
        </mxCell>
        <mxCell id="ONclmi-p_48liSY1FyFz-31" value="&lt;font style=&quot;font-size: 15px&quot;&gt;Files&lt;/font&gt;" style="text;html=1;strokeColor=none;fillColor=none;align=center;verticalAlign=middle;whiteSpace=wrap;rounded=0;" parent="1" vertex="1">
          <mxGeometry x="116.5" y="646" width="60" height="20" as="geometry" />
        </mxCell>
        <mxCell id="ONclmi-p_48liSY1FyFz-32" value="Flightaware/Cirium" style="shape=image;html=1;verticalAlign=top;verticalLabelPosition=bottom;labelBackgroundColor=#ffffff;imageAspect=0;aspect=fixed;image=https://cdn0.iconfinder.com/data/icons/google-material-design-3-0/48/ic_flight_takeoff_48px-128.png" parent="1" vertex="1">
          <mxGeometry x="94.5" y="703" width="47" height="47" as="geometry" />
        </mxCell>
        <mxCell id="ONclmi-p_48liSY1FyFz-33" value="Azure Power BI Service" style="shape=image;imageAspect=0;aspect=fixed;verticalLabelPosition=bottom;verticalAlign=top;image=data:image/png,iVBORw0KGgoAAAANSUhEUgAAAaIAAAGhCAYAAAAjn7DBAAAACXBIWXMAABcRAAAXEQHKJvM/AAATsUlEQVR42u3dT2ibZ57A8Z8s/0lix6Yn5+Kw4OxlsXEGdueiQKYMxNsUcmgucWba7CkNkx52c4ghhRwCU7Bhc2o6aW9OhyawpIdAnUmgyxSiy/6BGBvmsPbFuTgLZZEixbZkSXvIONNOk9aS9ceWP5/LMDOOZB5L7/d93vd53zfx7ddv/DEijgcANN+bHcYAgFYSIgCECAAhAgAhAkCIAECIABAiABAiAIQIAIQIACECACECQIgAQIgAECIAECIAhAgAhAgAIQIAIQJAiABAiAAQIgAQIgCECACECAAhAgAhAkCIAECIABAiABAiAIQIACECACECQIgAQIgAECIAECIAhAgAhAgAIQIAIQJAiABAiAAQIgAQIgCECACECAAhAgAhAkCIAECIABAiABAiAIQIAIQIACECACECQIgAQIgAECIAECIAhAgAhAgAIQJAiABAiAAQIgAQIgCECACECAAhAgAhAkCIAECIABAiABAiAIQIAIQIACECACECQIgAQIgAECIAECIAhAgAhAgAIQIAIQJAiABAiAAQIgAQIgCECACECAAhAkCIDAEAQgSAEAGAEAEgRAAgRAAIEQAIEQBCBABCBIAQAYAQAdB2Og1Ba6TnNuLR42Isr5TjydNyZHKVWFgqGRhogv7eRIweSUZ/XyJGh5MxeqQzRoaTcfiQfXMhamPLK+WYTRdjNl2I9NyGAYEWyuYrL7+H99PFl//70GBHnEx1xbGjXXEy1WWgmiTx7ddv/DEijhuKxrj9oBC3H6yLD+wyQ4MdMTHeHRPjPWZKjfWmEDUwQFMzq/HkadlgwC535kR3TJ7bL0gNCpFRrbPZdDGOns3EB9N5EYI2cedhIX72q0xMzaxGJlcxIHUmRHWSyVXi11dz8e7VnABBm5q+tRbHz2cdaheinTsL+u5JT6A9PXlajlOXnsWVG88NhhDtDFMzq/Hu1Vxk86brsJd8+uV6HD+fdahOiFrr4lQ+pm+tGQjYoxaWSnH0bCbmF10DKERNtnk+6M7DgsGAPS6br8SpS8/ESIia68qN584HAWJUJ+6sUKWLU/mGzIRSYy/+FCPDyRjoSxhoaJD5pVJkc5WYXyzV9dzuZowefzHgOyxEjXPz7nrdIjQynIyJ8Z5IjXXG6JGkwYUWWF4pv7zv42y6uO0wbcbom8/6DW4V3Flhi9JzG3Hq0rNtv44rtGFnyuQqcftBIW7eXdv2tYDvv9MTH108YFC3xi1+tvoBPX4+u60P51uprvjoNwcECHaBm3fXY2pmdVszpM+v9blx6hZDZKu4Bdu5Z1x/byI+v9YXv7/WJ0KwS1w43RPffNb/8txtLS5O5V1jtEW2jD9hfrEUn365XtO/HRlOxuMvBuwVwS50+FBH3Lt+MC6/t6+mf5/NV2JqZtVACtH2ffhJbbfxeCvVFfeuH7R6Bna5yXP74+PLvTX920+/XI/lFfeeFKJtSM9t1HRzw9RYZ/z+Wp8IQZuYGO+uOUZmRUK0LbV8gEaGk/H5tT6DB20Yo1oO0915WDArEqLabF5fUI3+3kR8fLnXTAja1OS5/TUtYLh51z0phagGtXxwJs/td3EqtLnPr/VFf291O5u3H7gvpRDVoNoPTmqsMy6c7jFw0OYG+hIxeW5/Vf8mm6/ErPtTClE10nMbVV/IVu0HE9i9LpzuiaHB6jafXz0yKxKiBn5gUmOd27rwDdh9qt359HhxIarKwlJ1t3KfGHdIDvaak6muqs4VPXlatnpOiBq35+LOCbD3DPQlqv7umxUJ0ZZU+2Crt1JdlmvDHvX2se6qfn55xYPzhGiL0+dqHBszG4K9qtpzw2ZEQrTFGVF1HxTXDcHeNdCXqHr1HEJUdyPDQgR7WTWPdzEjEqItqXZVi/NDYGcUIaqr7T4iGNhb7IwKEQBCBABCBIAQAYAQASBEACBEAAgRAAgRAEIEAEIEgBABgBABIEQAIEQACBEACBEALdZpCIB6mV8sxWy6EOm5jZf/PZuvRGrsxaYmNdYZo0c642Sqy2AhREB9ZHKVuHl3LW4/KMSTp+VX/sxmmDb/s783ERdO98SF0/s8ahuH5oDazaaLcfRsJqZvrb02Qq+SzVdi+tZaHD2biamZVQMpRADVuziVj3ev5iKbr9T8GptBOnXpWWRyFYMqRAA/LZOrxPHz2bjzsFC310zPbYiREAFscSY0nY+FpVLdX3dhqSRGQgTw46ZmVuN+utiw119YKsXF6byBFiKAH5pfLMX0rbWGv8/9dDFmGxg7hAjYpT785HnT3uvKjecGXIgAvj8b2rwGqBmePC3H7QcFAy9EAC/cfrDe9Pf8Ki1EQgTwZ604Z3M/XbSCTogAIpZXylXdNaGeGrFMHCECdplWRSgi4tFjq+eECNjzHB5DiICWml/cMAgIEQBCBABCBIAQAYAQASBEACBEAAgRAAgRAEIEAEIEgBABgBABIEQAIEQACBEACBEAQgQAQgSAEAGAEAEgRAAQERGdhoB2srxSjoWlUswvbvzg/zt8KBmpsc44fMj+FwgR1FEmV4nbDwpx+8F6LCyVfvLnhwY7YmK8Oy6c3hcDfQkDCC1m15Bd7ebd9Th6NhMffvJ8SxGKiHjytBzTt9bi6NlMTM2sGkQQIqhtFnTq0rP48JPnkc1XanqNbL4S07fW4vj5bCyvlA0qCBFszfxiKY6ezUR6bqMur7ewVIrj57Mxv1gyuCBE8OOWV8px6tKzmmdBPzY7OnXpmRiBEMHrZXKVePdqru4R+m6M3r2ai0yuYrBBiOCHbt5d2/KChFo9eVqOKzeeG2wQIvi+5ZUXK92a4c7DQt3OPwFCRJto9jLr391dM+ggRPBCJleJOw8LTX3P++miJd0gRPDCbLq4p94XhAh2mFfdN64ZHs0JEQgRRDR8pdxr39c1RSBEEBEtO1fz5KlzRCBEIAggRAAgRAAIEQAIEQBCBABCBIAQAUA9dBoC2HmWV8o/uH4qNebrihABDZLJVWI2XYyv0oVIP9547VNohwY74mSqKybGe2L0SNLAIUTA9gN08+5a3Ly7vqVHoD95Wo5Pv1yPT79cj9RYZ0ye22+mxK7nHBG0yPxiKY6fz8b0rbUtReivpec24tSlZ/Hrq7nI5CoGFCECtu72g0L84v1sXe6jdz9djFOXnsW8u4UjRMBWI/TBdL6ur7mwVBIjhAj4abPpYt0jtCmbr8QH03mH6RAi4NUyuUpcnMo39D0WlkpxcTpvsBEi4Ieu3Hhe06KEat1PFyM9t2HAESLgL5ZXynHnYaGp0QMhAl6amllt6vstLJXMihAi4C9m08Wmv+cXf1g38AgR8OLC02acG3rV+4IQAfHocbEl7/vkadlSboQIaK2FJRe4IkSw5zlEBkIEgBABgBABIEQAIEQACBEACBEAQgSAEAGAEAEgRAAgRAAIEQAIEQBCBABCBEC76zQEvM7mA92GBjvi8CH7LIAQ0UDLK+WYTRdjNl2I+cVSZPOVH/zM0GBHpMY64+1j3XEy1WXQACGiPgGamlmNOw8LP/mzT56W487DQtx5WIihwY6YPLc/Jsa7DSKwLY637GFTM6vxs19lthShV0Xpg+l8HD+fjfnFksEEhIity+QqcerSs5i+tbbt11pYKsUv3s/G7QcFAwvUxKG5PRqhhaX6zmI+mM5HRDhUB5gR8ePevZqre4S+G6PZdNEgA0K0HUOD7TskUzOrL5dkN8rFqXwsr5R9kNgzMrmKQRCi+qr2epnd8iFcXinX5ZzQT8nmK3Hlk+c+SOwZjTrCIES03Ydwama1ae91P11s+MwLdtJO3lalxpyWF6ItGD1S3QdlNyxdXl4p17REezu++MO6DxNtL5OrxJOnDkULUZ1Ve47o0dzOPznfigUEdx4WHDun7VU78zcjEqItzoiSVf38/XRxx29wZ9OFXfElhd3mq0fVfbcOH0oaNCFqzF7LTl+y3KogzC8KEe0rk6tU/d03IxKihn1Ybt5d29FfllaZt5qINjabLr7y5sCv4y72QlSVk6nq7g6wsFTasYehWrmqL+scEW2s2pWoZkNCVJXRI8mqFy1cueHaGdhLEap2tdzbx9z+SoiqnhVV97ydhaVS3LxryTK0u+WVctXf9aHBDs/wEqLqXTi9r6a9JI9EgPb2wXS+qnNDEW4GLEQ1Onyoo+pjutl8JT6Yzrt+BtrUlRvPazofPDHeY/CEqDaT5/ZX/W8Wlkpx6tIzMYI2c/tBIT79svrD72dOdFstJ0S1S4111rTSRYyg/SK0+cytZuzQChHf89vfHKjp323GyCMRYHe7cuN5zRG6/N4+syEh2r7RI8l4/53aju8uLJXi+Pmsh8XBLrS8Uo5Tl57VdDgu4sVKuVoWPQkRr51a1/rAvGy+Eu9ezcWvr+bMjmAXyOQqMTWzGsfPZ7d1ofqNyd4Y6EsYUCGqj4G+RHx+rW9br3E/XYyf/SoTF6fylnjDDg7Q0bOZmL61VvUS7e96/50ed1KogpHaotEjyfj4cm/Nx4o33XlYiDsPCzEynIyTqa44drTLBxZaZHmlHOm5jfgqXYj7dTqEPjKcjI8uHjC4QtQYE+Pd8ehxsS4PmVtYKsXCUunl47tHhpMx0JeI/r5EjA4nX/P+PU58wha87j5wyyvll7fmacT9IYcGO+Le9YP+AELUWDcme1/ObOrpuzcnfd2e2bGjXUIEW7C5g9dM/b0vDuE7L1Q9W7UaY3TmhFt2AH+J0L3rB6t+sCZCJEbAtm0ejhMhIWpZjC6/5zoB2KtGhpPxzWf9IiRErTV5bn/cu34w+nsdF4a95P13euKbz/qdExKinSE11hmPvxiItzxvBNre5qE4S7SFaMcZ6EvE76/1xb3rB2u+CwOwc/X3JuLye/vim8/6XfsnRLtjdvTx5V5BgjZx5kR3fPNZf0ye2+9QXAPIeoNMjHfHxHh33H5QiNsP1hty8RzQOEODHTEx3h0XTu8THyFqjyAtr5RjNl2M2XRBlGCHGhlORmqsMybGe6yEE6L2c/hQR1w43RMXTr94pER6biPmF0uxvFJ6eVcFgYLmBWegLxFDgx1x+FBHjB558RBMMx8h2lNqffor8NO+/foNg7CLOJsOgBABIEQAIEQACBEACBEAQgQAQgSAEAGAEAEgRAAgRAAIEVCl/l1+R+djR7v8EREiajcy3LpnqtRrA7zb71I+Ouy5NrUa6LOJEiLa4Ivcur3xem2AWzWjqFcAW7kxrceOSCt3ZjycTohoE62aUYweqc/7tmpGUa8NcKvGf2iwoy47IgN9iZbFyDO7hIg2cTLVvas3Iq36/et1bmT0SDL6exMt+Lt37cjX2qq3Us5NCRFtFKLmf6HPnOiu22HB0SPJGBps7ke1vzdR13GbGG9+TCfGe3bka23V2Ra8J0JEgxw+1BFnTjR3Q3j2H+u7EZk8t7+pv/+F0z11fr19TZ+N1vP8SrM/QyPDyZbsQCFENFAzN+Spsc66H9ufGO9u2qyovzdR93A0e0PeiL/35Ln9TTvE+NHFA760QkQ7zoouv9f4vfL+3kR8fLm3Ia99Y7K3KWN1Y7K3IasNP7p4oCkb8vff6WnISf7DhzqaEohG/f4IETtkVtToL/iNyd44fKgxH6vUWGfDY3rmRHfDDgkN9CXi3vWDDf39R4aTDZ39Tox3N3RmlxrrNBsSItrd59f6GrYU9+PLvQ0/rj95bn/DNoRnTnQ3fNY1eiTZsBnjyHAy7l0/2PBrx25M9jbkbzAynIzPr/X5ku5Byclz+/8pIv7GUOwN+7oT8c6b3fFff9qIJ0/LdY1Qs1aGvX2sOzK5Svz3n0q7KkLfjdHokc74+j+KsV7cXRH67t9goK8j/v0/i3Ub/3+bOhj7uhO+pHvPjBDt0RhtLsdNz21s67WGBjvi3vWD8cufN3eF0y9/3lWXjXl/byL+9V96m74q728PJ+OX/9AV//Wnjfjf/6ts67Xef6enYee1fszf/11nnEx1x/88KdW8UzM02BE3Jnvjnyf2+WLu4RAlvv36jT9GxHFjsTctr5RjamY17jwsVL0BmRjvbvoG/K9lcpW4eXctbt5dj2y+ug36mRPd8dHFAy29DVJExO0HhZiaWa16Y54a64zf/ubAjrgNTnpuI353dy3up7e2VzAynIwLp/e15Poqdpw3hYiXQZpNF2M2XXjtLGlosCNSY53x9rHuHXeNRyZXidl0Mb5KF2Jh8dV76P29iUgd7Yy3Uy9+/4Eddlfs2XQxvnpUiIWlUiwslV4bn5N//v0btShku3+H9NxGzC9uxPxSKbK5yvd+98OHkn/+T6enESK2uJe7uQHfjTefnF8svZwl7cblwMsr5ZdBHRlO7rhwghAB0BYhMj8GoKWECAAhAkCIAECIABAiABAiAIQIAIQIACECACECQIgAQIgAECIAECIAhAgAhAgAIQIAIQJAiABAiAAQIgAQIgCECACECAAhAgAhAkCIAECIABAiABAiAIQIAIQIACECQIgAQIgAECIAECIAhAgAhAgAIQIAIQJAiABAiAAQIgAQIgCECACECAAhAgAhAkCIAECIABAiABAiAIQIAIQIACECACECQIgAQIgAECIAECIAhAgAhAgAIQIAIQJAiAAQIgAQIgCECACECAAhAgAhAkCIAECIABAiABAiAIQIAIQIACECACECQIgAQIgAECIAECIAhAgAhAgAIQIAIQJAiABAiAAQIgAQIgB2okSlUjEKALTM/wMbIkVKSDtrrwAAAABJRU5ErkJggg==;" parent="1" vertex="1">
          <mxGeometry x="1273" y="486.12" width="98" height="97.76" as="geometry" />
        </mxCell>
        <mxCell id="ONclmi-p_48liSY1FyFz-40" value="" style="endArrow=classic;html=1;strokeWidth=2;fillColor=#1ba1e2;strokeColor=#006EAF;shadow=1;" parent="1" edge="1">
          <mxGeometry width="50" height="50" relative="1" as="geometry">
            <mxPoint x="958" y="540" as="sourcePoint" />
            <mxPoint x="1048" y="540.5" as="targetPoint" />
          </mxGeometry>
        </mxCell>
        <mxCell id="ONclmi-p_48liSY1FyFz-42" value="Ingest" style="rounded=0;whiteSpace=wrap;html=1;shadow=1;comic=0;fillColor=#8FA0B3;fontColor=#FFFFFF;fontStyle=1" parent="1" vertex="1">
          <mxGeometry x="387.04" y="350" width="117" height="30" as="geometry" />
        </mxCell>
        <mxCell id="ONclmi-p_48liSY1FyFz-43" value="Analyze" style="rounded=0;whiteSpace=wrap;html=1;shadow=1;comic=0;fillColor=#8FA0B3;fontStyle=1;fontColor=#FFFFFF;" parent="1" vertex="1">
          <mxGeometry x="588.8299999999999" y="350" width="117" height="30" as="geometry" />
        </mxCell>
        <mxCell id="ONclmi-p_48liSY1FyFz-44" value="Result" style="rounded=0;whiteSpace=wrap;html=1;shadow=1;comic=0;fillColor=#8FA0B3;fontStyle=1;fontColor=#FFFFFF;" parent="1" vertex="1">
          <mxGeometry x="800" y="350" width="160" height="30" as="geometry" />
        </mxCell>
        <mxCell id="ONclmi-p_48liSY1FyFz-45" value="Act" style="rounded=0;whiteSpace=wrap;html=1;shadow=1;comic=0;fillColor=#8FA0B3;fontStyle=1;fontColor=#FFFFFF;" parent="1" vertex="1">
          <mxGeometry x="1270" y="350" width="100" height="30" as="geometry" />
        </mxCell>
        <mxCell id="ONclmi-p_48liSY1FyFz-46" value="Semantics" style="rounded=0;whiteSpace=wrap;html=1;shadow=1;comic=0;fillColor=#8FA0B3;fontStyle=1;fontColor=#FFFFFF;" parent="1" vertex="1">
          <mxGeometry x="1040" y="350" width="120" height="30" as="geometry" />
        </mxCell>
        <mxCell id="ONclmi-p_48liSY1FyFz-56" value="&lt;font color=&quot;#ffffff&quot;&gt;RR Production Tenant&lt;/font&gt;" style="text;html=1;strokeColor=#000000;fillColor=#000099;align=center;verticalAlign=middle;whiteSpace=wrap;rounded=0;strokeWidth=1;" parent="1" vertex="1">
          <mxGeometry x="370" y="751" width="110" height="40" as="geometry" />
        </mxCell>
        <mxCell id="_OEPE8C7rkL7k7jzLjAA-1" value="Azure Databricks" style="aspect=fixed;html=1;points=[];align=center;image;fontSize=12;image=img/lib/mscae/Databricks.svg;" vertex="1" parent="1">
          <mxGeometry x="620" y="632" width="50" height="48" as="geometry" />
        </mxCell>
        <mxCell id="_OEPE8C7rkL7k7jzLjAA-3" value="" style="html=1;dashed=0;whitespace=wrap;fillColor=#2875E2;strokeColor=#ffffff;points=[[0.005,0.63,0],[0.1,0.2,0],[0.9,0.2,0],[0.5,0,0],[0.995,0.63,0],[0.72,0.99,0],[0.5,1,0],[0.28,0.99,0]];shape=mxgraph.kubernetes.icon;prIcon=api" vertex="1" parent="1">
          <mxGeometry x="170" y="698" width="50" height="52" as="geometry" />
        </mxCell>
        <mxCell id="_OEPE8C7rkL7k7jzLjAA-4" value="&lt;font style=&quot;font-size: 12px&quot;&gt;API&lt;/font&gt;" style="text;html=1;strokeColor=none;fillColor=none;align=center;verticalAlign=middle;whiteSpace=wrap;rounded=0;" vertex="1" parent="1">
          <mxGeometry x="165" y="751" width="60" height="20" as="geometry" />
        </mxCell>
        <mxCell id="_OEPE8C7rkL7k7jzLjAA-6" value="" style="endArrow=classic;html=1;entryX=-0.018;entryY=0.896;entryDx=0;entryDy=0;entryPerimeter=0;strokeWidth=2;fillColor=#1ba1e2;strokeColor=#006EAF;shadow=1;" edge="1" parent="1" target="ONclmi-p_48liSY1FyFz-14">
          <mxGeometry width="50" height="50" relative="1" as="geometry">
            <mxPoint x="240" y="740" as="sourcePoint" />
            <mxPoint x="290" y="690" as="targetPoint" />
            <Array as="points">
              <mxPoint x="300" y="740" />
              <mxPoint x="300" y="560" />
            </Array>
          </mxGeometry>
        </mxCell>
        <mxCell id="_OEPE8C7rkL7k7jzLjAA-10" value="&lt;font style=&quot;font-size: 14px&quot;&gt;API Calls&lt;/font&gt;" style="edgeLabel;html=1;align=center;verticalAlign=middle;resizable=0;points=[];" vertex="1" connectable="0" parent="_OEPE8C7rkL7k7jzLjAA-6">
          <mxGeometry x="0.6167" y="-2" relative="1" as="geometry">
            <mxPoint as="offset" />
          </mxGeometry>
        </mxCell>
        <mxCell id="_OEPE8C7rkL7k7jzLjAA-7" value="" style="endArrow=classic;html=1;entryX=-0.003;entryY=0.573;entryDx=0;entryDy=0;entryPerimeter=0;strokeWidth=2;fillColor=#1ba1e2;strokeColor=#006EAF;shadow=1;" edge="1" parent="1" target="ONclmi-p_48liSY1FyFz-14">
          <mxGeometry width="50" height="50" relative="1" as="geometry">
            <mxPoint x="240" y="625.2" as="sourcePoint" />
            <mxPoint x="384.85727999999995" y="444.7999999999999" as="targetPoint" />
            <Array as="points">
              <mxPoint x="270" y="625" />
              <mxPoint x="270" y="527" />
            </Array>
          </mxGeometry>
        </mxCell>
        <mxCell id="_OEPE8C7rkL7k7jzLjAA-9" value="&lt;font style=&quot;font-size: 14px&quot;&gt;SFTP&lt;/font&gt;" style="edgeLabel;html=1;align=center;verticalAlign=middle;resizable=0;points=[];" vertex="1" connectable="0" parent="_OEPE8C7rkL7k7jzLjAA-7">
          <mxGeometry x="0.1887" y="-1" relative="1" as="geometry">
            <mxPoint as="offset" />
          </mxGeometry>
        </mxCell>
        <mxCell id="_OEPE8C7rkL7k7jzLjAA-8" value="" style="endArrow=classic;html=1;entryX=-0.015;entryY=0.283;entryDx=0;entryDy=0;entryPerimeter=0;exitX=1.01;exitY=0.128;exitDx=0;exitDy=0;exitPerimeter=0;strokeWidth=2;fillColor=#1ba1e2;strokeColor=#006EAF;shadow=1;" edge="1" parent="1" source="ONclmi-p_48liSY1FyFz-12" target="ONclmi-p_48liSY1FyFz-14">
          <mxGeometry width="50" height="50" relative="1" as="geometry">
            <mxPoint x="240" y="456.82" as="sourcePoint" />
            <mxPoint x="290" y="406.82" as="targetPoint" />
            <Array as="points">
              <mxPoint x="300" y="442" />
              <mxPoint x="300" y="498" />
            </Array>
          </mxGeometry>
        </mxCell>
        <mxCell id="_OEPE8C7rkL7k7jzLjAA-12" value="&lt;font style=&quot;font-size: 14px&quot;&gt;JDBC&lt;br&gt;Connectors&lt;br&gt;&lt;/font&gt;" style="text;html=1;strokeColor=none;fillColor=none;align=center;verticalAlign=middle;whiteSpace=wrap;rounded=0;" vertex="1" parent="1">
          <mxGeometry x="270" y="458" width="60" height="20" as="geometry" />
        </mxCell>
        <mxCell id="_OEPE8C7rkL7k7jzLjAA-13" value="" style="endArrow=classic;html=1;entryX=0.377;entryY=0.001;entryDx=0;entryDy=0;entryPerimeter=0;fillColor=#1ba1e2;strokeColor=#006EAF;strokeWidth=2;" edge="1" parent="1">
          <mxGeometry width="50" height="50" relative="1" as="geometry">
            <mxPoint x="669.9999999999999" y="419.85" as="sourcePoint" />
            <mxPoint x="851.49625" y="460" as="targetPoint" />
            <Array as="points">
              <mxPoint x="851.59" y="419.85" />
            </Array>
          </mxGeometry>
        </mxCell>
        <mxCell id="_OEPE8C7rkL7k7jzLjAA-14" value="" style="endArrow=classic;html=1;strokeWidth=2;fillColor=#1ba1e2;strokeColor=#006EAF;shadow=1;" edge="1" parent="1">
          <mxGeometry width="50" height="50" relative="1" as="geometry">
            <mxPoint x="1170" y="538" as="sourcePoint" />
            <mxPoint x="1260" y="538.5" as="targetPoint" />
          </mxGeometry>
        </mxCell>
        <mxCell id="_OEPE8C7rkL7k7jzLjAA-15" value="" style="endArrow=classic;html=1;entryX=0.017;entryY=0.289;entryDx=0;entryDy=0;entryPerimeter=0;exitX=0.501;exitY=0.002;exitDx=0;exitDy=0;exitPerimeter=0;fillColor=#1ba1e2;strokeColor=#006EAF;strokeWidth=2;shadow=1;" edge="1" parent="1">
          <mxGeometry width="50" height="50" relative="1" as="geometry">
            <mxPoint x="445.45904" y="470.00000000000006" as="sourcePoint" />
            <mxPoint x="624.8328599999999" y="419.10231000000005" as="targetPoint" />
            <Array as="points">
              <mxPoint x="445.82" y="418.8" />
            </Array>
          </mxGeometry>
        </mxCell>
        <mxCell id="_OEPE8C7rkL7k7jzLjAA-16" value="" style="endArrow=classic;html=1;entryX=0.377;entryY=0.001;entryDx=0;entryDy=0;entryPerimeter=0;fillColor=#1ba1e2;strokeColor=#006EAF;strokeWidth=2;shadow=1;" edge="1" parent="1">
          <mxGeometry width="50" height="50" relative="1" as="geometry">
            <mxPoint x="670" y="419.8499999999999" as="sourcePoint" />
            <mxPoint x="851.4962499999997" y="459.9999999999998" as="targetPoint" />
            <Array as="points">
              <mxPoint x="851.59" y="419.85" />
            </Array>
          </mxGeometry>
        </mxCell>
        <mxCell id="_OEPE8C7rkL7k7jzLjAA-25" value="" style="group" vertex="1" connectable="0" parent="1">
          <mxGeometry x="950" y="710" width="430" height="80" as="geometry" />
        </mxCell>
        <mxCell id="_OEPE8C7rkL7k7jzLjAA-22" value="" style="rounded=0;whiteSpace=wrap;html=1;" vertex="1" parent="_OEPE8C7rkL7k7jzLjAA-25">
          <mxGeometry width="210" height="80" as="geometry" />
        </mxCell>
        <mxCell id="ONclmi-p_48liSY1FyFz-49" value="      Azure Data Factory" style="shape=image;imageAspect=0;aspect=fixed;verticalLabelPosition=bottom;verticalAlign=top;dashed=1;image=data:image/png,iVBORw0KGgoAAAANSUhEUgAAAMwAAAD3CAMAAABmQUuuAAABMlBMVEVctNv///9btNv+/v6jSaRcs9s5mchbs9pbs9u41DV3wOA5mcd/xOJ8wuLt9/rs9vtOqdNGo87l0uVput7O6PPz6vOdOZ6hRaP2+/3h8fi+4PCt1+y/hb+k0+q0arVqu96UzOf7/PXU6vXY55X09v7A4fD1+ePG3F+10iW91z7w9tff66/l77j5++/O4Xq3dbeiTa/99vbv5vWyfs2ucL+3a6z77vDq8sXT5IbL323B2VHX55HA2Uri7bLK3m7a6J3fwN7WstPOoMnEjsDMoNPPlMSrWqrw2OTFg7nMttzguNK4iczs8f7p8sLpw9G+nNbYnr/Qy/Hm4vm0WqfLveypXbXMsdrCcqzhvtnGlMPz09zAYKX+5+bNf63FquCpZbjapsScR7KtRJ3a1PK2l9vFa6tic+joAAAXSUlEQVR4nO1di3/TRtadGcWVSJw4YBM7Cdk8gECgoRgoBZbC9gVbaKHQpg+WpQ/4/v9/4Zu37p2HPJJlJ9CdH8S2PJLm6Jx75s5obBNKM/Evk8U8yA0UvdSbxCtYWb1X1qemlqynj6x2UVXsM/2Cmt2oLeUrfRD0lnrIQtsJtQ3TbYQNNHvphpuNsJhzA8y0rGieQbgAolfLa/bkAnADMJkPJisbB3etAkPLTeDqU8gJBJPZWqmNrygkKDN7Vll2dw8P92U5PDzcNVeimcxAnXnIDNKw/9nnD+9cu3v30qVL90Thj3cfXPvn1e+v7NomWhpgaLkCcuSUoVa5m+DD5IJk5jPDuTi88vn5B/cuq3IKF7Xx4NKdq5/t79orWYOZ+RkApYdXPj7/4P4pF4NXLp+ygNINAIYjwOgz0SSGHDCU7n9+555HRhzQ5YMHD6+oZlmri4DBm3w3awMMktn++UsHqUBsuXfts5NoAB/fS+YElYM7u+U5ToQB0MPzjZCIcvnSlbkwY2tMYmb36kFjMKdOXds3Vx24td2gPQIECOg0YfODZXz7rCoXLlSSBMDsX2qmMVUOPm7kZr7MsHooffyvL7786twnopw79/UXZ1w8YZlduT8FllOnHkIJNe9nEE+3f/3m00cLCwtDUxYWHv3j6b8uILRBme3fnQbLwfftGgDNxo///WhNAkBlOFz7/duzmYNDM2MuDveygynA3Dls0wC4ur74dM0DYvCs3foWq61kZqTPf3i1sdAu39m3x3XAUA2GemBoBIzQ15NPFyJIFJyF5zeoVzgYuj4yV+77Zh5w+eD8IRRUhQFUZABAL7e/qYQi4Tz9LiAzSjc2qckAdq9eqo/l/j/3dZNG/LpUywwJLmIA9Pa/J0GRaAA3VmZ0gw2Mz3CtfX+nTkZzcO/Bw31zvNHGxogGmclqMfNsMhSB5jl0tcyAIf3NETWjMp5rfvzwzr1Tfu7vaOvy5fsP/nn1ij6U2Hmjv5klMDPJAMY/JBDDy/UXIWZI0d/ZMwIRR+bjmc+unr926f6BaLQH4tTBwb27dx5+f0WNZ/TBept9NhFMipuNv0kDM7x1IQSGFcX2Vs+cU1fYPdy/8tnHVx/eecDHmfcPeLnPh5p3r51/+DmHIcfPWWYPlF3sspxstiGz8X/TwCysvQgYACkIKRjZGYysi2rrjBcTY+pFb2O7KBgjm20YAAZTdv4BakYhmRFeWMGWN9d7I33JyitK0R/jfNr/aDbq7W1tFzlhhEWZqWXNQGZDnr6cE+WTR8GoeRkwAAmGw8kL0t26uG7wmqusT27JyCwnWW9vY2exKNQBgsyY7jG907QGsHZ07uczN2Rrzp758kefnLWfkFoQGNEexvqLO1ubg/WVkcZTkmQvqNi+sr53cXOnu813IaQTB9PYzYZHP58BOdj48S8emuG7gMyYRqL+5Tx+yHZ3Z2tjsN4LhMvK+kDAWOwLZRasY66DkVkZ9hUGYBoR2vSHuOjXn99wwvbx/3lJ582RawAXrczE/w5vHeP2xkvO/6/m/e3t5W53Z2en2+0ubveL1dVV/R5T8KuYKQUbNQBcxIbHP64dPf9OvwA1HrtKsw5QMnMRyky2jvEtvKkdoSCOK1fYeOtz4VmFEKOqmVsgJGAAdGxGiNolAwbAK41BJaWoJ1+/DZkpT9lcMD3XAFwwnBkARl97IEMLhoB4gcxoPLd/5UNEUb767WsxoILDZguGV/pNVjr327eBRBiXJwEwoHgyI1Jm/FHAYQKQBqOQFBKAeIeVRIZlNv4BdhJPR6EMgI5/WTC1eJ0L5iKDyw0peuXozIKBMsNXXohHMUMcZphhLiwzggxg/B9w5uHRW7fLkuXZGqhz/TuKcHjl9acuGM8ABjNiBnfkb7IAM7swDRveOjuBGQ/MTc8ABq4BpMcMZIYoZmzMZD+swfMKDXkxg1o3fArGwmnMvENvNwRDAjIjRmYGzLO/4Hl/f0mhzBSYZ48gmDejsmFBMK9cMG8cMC3KjOB+Bndy17+1GZGV2e4PsGlHLyyOiMye/YiwqLTZlVlrBrAFDMAZ/YqBoWsAqMbw5g1ASYgZmRrA4iWaFMlsOmbYFsoAULcwvPWSugaArrRVWZQZt9MMDQHcmNFgGIvEDIt1mpKZstN0JC5HuTalEdXG6EoflaPgSHnshMwaDhkMxsiMJbqZJzO2hdKZMdLZ2huYhWauDoe3vkOSCoB55qRmfzr9kmcAbBqZFVhmFF15MWRHiSZPHOHbz0elxoIyu+2MAdbe2fdmYQBsCw0BnPTj+lv0Jo8p2BEtvIDtCjHzxJkZ5EmFy0zWxABIkgHQ3V+wn8mzlgaAUoSjcnwbZgalRwt23sxjJmIAssWMwJgpjAEwawCgOGAylHrpTKoE8xry5nTm1Gmn8GUHy+9v3apBA5hSZtYAeHthErDw50tkACie/3yLG+/JzM2YF7STJyWanekNIHN0Jq3UjmqQyqyXxQzAjf6yj4nIrHVmMvoEBY0csmtm6Bip7E2G2uUyM0aJz4JyE5+ZCTETZIalZQD8P4qLhd9flgaAVXYdBADGoV49+6uyv0w0gCnBOFOtP1kwzlDm5nduy5DMvHT5aeTO2Uxllj1B44DnI/vm61+Qyi44+kL0jN3hMnCy6TOASD/jGYCTT4lk09w5eQYbePQWtM0zAC/4BRaEtgkzpDYzPNN1k039Pkx1ZPYfZca7xXH0U+bisAawV6PTtFmzZQYWP2ayXZyfvRmp/MxJMt+g64zL2L3B6Ywvy+KCAekMm3o8Izl4hbJJToEC88pRGb7W4HJ7pizTmCwms72WDQDPNWPBq2YLY4DN4z1mFpOZi2XtKRoquAawFzSAVjIA8Q/pbO1n9SZW2XM7/eUawBhN8SyUszwTmbGta2lwlvnjgOHNC/Lcj9EM4QtPN/rV+MkjJ15uvnQCxTWAvj/V1Gk0bC7wsFlP9CGdiTkIr/vv+YmlfJ09cTqYtVtV89FSZv3aU03J/Yx4+AONA36Sb6Ak8x1FYEqZuVjkpAitlll/lgZA8ThgeFNughb35wsKZAYeXv3ldpauxlyZNWKmhgHwIEY6k7MQcA2Gyv4DzHhYbLykMAPIaWAAbsyUE8tojChvqv6AvOwC9WOGZl5y6cW+W9oFE3Qz3kEinb1z7nbwFCcLgHEnyYZHYSxgxznIjHcq/3WSzVdIZTccMFkQy62XFATIHAygCBmA093zNNFTWeYZwGv3zvKtmMZi/czUzORBZpxEbOHNWdj9H72gPjOvf8Ed//CTG7jlyQZgs2YSzZoJ6DRByUOdppciP/0VGLOaT3dixl09N7z1liaUoMxY0/FMvhM0AIrHAUdwIQwcfJriDmCG1yt8rKqfmS7R3IksN/EmvcryghoyTaMyZx42MN0XRtSuAShmfAPwBr6goTr7BwZw25mHPfr2bLxcAHD8mJlmcJbHmMliKxWHzzPMDHVyOVHWKgpcqCmXAscMIGGuGcV/XGaoZ0FgXtAMg8l2YywG9z8CEkRgWpKZZwDCAiJBw7N/dJcj21uPVQ0Xs+TMGMB60AAaDQGizFB3xKgv7DuKmBltLg7GP4ZqRsG8y8Iymz4DiDHj5GclMW+hYdCVraI/eF0LzFDfPstcMKGY6STFTAUzVDET9DORlwFm1ndYLsDUkZkaHyUaQK255gqZBf3MzBqpintdnpE3Y2bOMgvq7PoLW4vSwaJYmNcf1DQAJLOYAbSaAVBnHKCvqlyToZgZbbAi50fo7+16SzErwbyh8vMUc2RGtPkP/0NKcu5f1uptqsyWM0OfrNVAw8kdbeyspBmA02kyJ2Zwr1mIo4KsGRhARs9+s7A2hGXt6Utahn6hLgcHM/7mUVWfj8vNGytbbHklaABTjjQVmOC6ZprdfvzFV+c++Ycq5859eeaswStCn1gwdPz4THK5sb5Dim4ATLrMSExmK+FE00htrMsF/l/BFX/3tgumwEiZ1Srr3aJgXSOzRhlAA2YyrbeyaAmONomSGMkVM2WmVrpuuQulYKQ52uBtz1mIGdu6pnPNipmgAbibTCSJj90U5kICZhzg4bKy2RctKJkJgCEN1zV7BmCGzVS33wNjQr8ZGB76udzXMuPIbGYGkAFs9gWXvDhkp4HMVPYjzhqWWQv9TIUBANGZYWU2WC5K1usxk+0ty09gIJnNl5kMMKPCV56zNjN8X8Izhgpm2o0ZMDujgTkxs7KJTyyZ2U5jZmVTAOmUzEwBJtTPkAluljmbVnToN5FZb0uS0gnJrFMecA4yUxqTNqbR1JXZXpeJ2K+U2TwNYLDM2wMyO530pTCTDbbzXF0El5l55WbQAMrQR8ywJGZ46Of8OsSY2a491wwNAJRQp1n29arXlOGy2VfXKx4z8XDhtpFrUjvq9M1kNlU6UxoAD195xrwCTExmPEnODSUTDWC2iWam21MQ9SHCugZA9xZ5qHVSZJZuACFrTjMANdZXe9RmJruoPqobZQbHTPsGQPEQYCQ+4dbBoQYNYLuCGd5TSgINM6yOASTMmzHbmiSZyaRd8xAF47BRhstWXyXJEoy5mKIR08msrgHoVzxpJ0UJxJHZhH6m12W51FeFzGIG0GiqqdurYoYn/EweXRy0pgFkg0VW6JS/ZQNowgzN1rdtBxVihlQkmqOL27z5bBIz007PkkRmRHsK3YCKmPE6zUyFfl9+4QCImbw8f1XWbNyswVxzAIx2M94eJYAOIVVupmQGgIj/vR2hAQ9M0M3aSzS7vXA/w3Wyxc/SAQcj6lOe8CrGDGB9RyQwJEFmvO527QwgdrMpKrP1bqFh1DUA2VOatQdtGgBJYsYfaWZiAGIaXW0AHjMywWYsjZkJnSapzpqx9jUzTtbMQ38RC8pU98D4BjDaEmN9ps4IY8aAIQRnzYvBkWaDW+dBA6AjnrQXen8rMwSsY66Sk86o6aQ8JzVktjhTA+DXNoexETWAgMx4L5t3mHZl0/xqAwgy01YGIEOfeMykGMDoYl/kYM2Ysa1rvKzRN4BBt5CHCzJT7hliRsiTt1cywyQf1gBY3ABcMKTxvJljAJReXJTh4oa6ro63MpjO6OkkAQYxw1yZEYLnmsMGMH0/I21VZcnJMrMGIMaj6juTcsfNjscAeMLPzJelBGVWYQB7y+J+LTEy0y1PyQBam2tGzPAspGB6/FbTAMRMciE2NGcGkNPsOzRAzIhpRxkustVlo6s7TR0zahaaaWYCMcMiMZPR3mIOj9nUzRh2s8G2uuFQJTMMxiaaPTUeNTIzzCQlmj0QM1NONRmZcZ1s6wFHfZmtd62ASpmRRJn1WjcAc4OuU98Atgd7YjqJAGZqGEBWDgF0hamtWYa+aWOEGVTKwRnr7/SLDjHDLslNlJnQ4Ky32Dxrxq2SYGTCD+7uiYMXINarOk3ZtE6nrJWLHNkBw7eQaNZsDWCizCzYSpkNlgvAQroBqPfKtkCZOeOZWDoTM4Cmiaa+W2F3wTJjEwxAthfIrIEBpDIzyQDy7vpoy3QGCcz4BhBiJrdDgIg1F8AAKmOm3uzM4saO/eZG/eAbQNXsjMtMKGaaG0AaGNuoPvzMpwJTOGCYfRdCMgagwBCjCQGG+QYQn2tuT2a6Pckyw2AayyxqAFP1M53y6TwNIJ8dM51ZMJM81ZQWMyQSM6hgZgiMmZL5wH4txsxyW24WBNOOm4XGM2E3Oy6ZAUwVMmN1DGBlua0MIGQAeA5g9hnAclu5mUk8mxkAq8rNSFJuNiFmSCRr1sw44g/ETHrWbGJmqqx5ZRkedZqRZicApnI807EPcQMgrptVymwlWWbWAMhsDYAhmeV1pprCBjBjZmZlACtOzEgPajQ74xoAacUAaszOTAHGmzczJDlgasybQTCMQDfTzDDXzQhBc81IZvMygNnJ7H3JAOoawPvPTMOlwMS9PxOKGYKZaSdmSCRmWnMzA84B09J4hiTdOYvJrK1Es6WRZuotjZNiAFWJZqIBHGtuZs5pmQwxw+ox0zxrxo0iITCzyJrjKzRgzFTLzIKdyXim0gCmG2m2IDPli+0YAEmW2XENATAzlQZAkpiJxgw5UbMzXsxEZmcqDWACGIYQRA1gwryZB0YTxIJTTZVrNI+vnwF4KgwgMKHR6lRTZK5ZN7hsXD2ZRQxAHWRmBpAX+meQcv3HFv4qwEyewxpFgfYPMCN+gEjWykUV+yeXfxoZQMVc8+rpeFktG0d0zLDK+gUAI5khefXx3bnmiqw5pZ9Z/SheTvt3ztjqUrz+UuEZQHEaVcD1V1nlXHN9ma3a83itXDrdMQcqZRYEs6TrW/C2n8mrwbScAQSYWTJnPd2xx5IXT2QAFoyotYQvxOnCM4BUZioTzYnMkKbMBIjxmSHTM1NhAJ1Y1jwJjGcAqWC0AUwAE8+aoxMaFeuaV/0zGZn5YKABAJl95MnM3jmbTmYnwwBakFmTOYBEAzDMHIsBAHKqZmfSmSGzMoD4zaa6YCYbQDtglmA9DMaXWfO55goDCMks0QBaktkHbwANmZnCmo/FAOYVMxXMxNc1e2DY8bjZyU40zZWZbz/zwRhAk7nmxgbwkWcAS4CZurlZ7akmMm3WTNyseQk9Nsuaq1ZopMqsrgHUG8/UMIDEm01JU011DGDuI80P1AC8mKlmZmnJPWvYAGCtiQbQmcAMmJ5tY665FpgiFYwZaZJ0MOxDllnzDGDJOWW9DMBcipNhAEtLHjNi0+k8xEyAGsNMXsHMksW8pA7/0dI0BuB0mvouwGpFKVm2MVNZ34IxMdOprF6kzzWnTTXB+mon7yl0M1Shg6ubbTCdsTt0gCbKh5bnmjVA/2aT+DOTm006QI57XTO+2TSHu83OXDM7gesA8G3A9KkmawCkYoWGxskIKiywREuu0GCoji7OCg1wD9bWgquaWHmDNmFds64wx7Uz+rF67cx7sqjB4at1A/gbLmsMGYDmrqyo9/3A1jW3v0bTd7Pmc80nWma1DaCqn/nfuuaZGYA8nb1BG4wZs41NjhnVadpGp8QMOEQwZjp11jVPmGue1ac0YjILLGtsc6rpRCeaJ80AmMfMtOuaG3y/GXg6yQBQcdYB4GWN8XXN7cw1N1zXbANKP/s7rmtmjdc1t9nPzMsA8hMxBMDMxBLNMgM4eeuaGYkYgImZ4FJgL2ZqGUAnaV0zRhA1ALiuGbybBsZ1s/d6XXP5CdrZrGv+oD7YUGnNs2AmccV5k7lm/FkA3KRJMWOjI9pp5k6nyYIGwMARZ/IR+iQ3I3U+plX7G4FOSqJZ9jPMN4AZfrKJnKgMYD6Ds7nnZnEDiC/RKueaSXDYTFwDSJprNjFDkAHkkQ8DGTCEnICpJgjneOeaZ2wAxJPZ/6aaDDkn4VPnBcH3ZypnZ6YAQ+YBhjlgWPD7ABCY90RmoQmNk2wALjMfrgGkM9O803Rjxp9rrtVpmvbaWsEbtCRlqsle6knrmmeTzlT1M3/Tj9B3UycBj9EASIUBFN2RSTSz0U7twVlkCACeTjIAVBrmZqaW/CFvDYZuznLYTMphM+TA2QjBuHPNgWEzWqFRFJtZCWavXCPWgsxIuswwmJgBTLrZlPf3qDEA/tC1JvQ+3mxiOz1qmcnooF/Yps3TADAzMQOYMAeQy58SyCyYbKMPMhoUM9PPNReQGfV+vbnm8FSTpo7/29C/3KHBiK/xtyty2wbjullpAA4YFgETnTgXuxTbGyMKwajfiVkV343Acl5NfYeC+HoFJr8fQWwtvy6BiSfiaLKG/DoFWYupt8VrZncRleVR1PcsyB3lU7N3bvbWf8tD5LpeUehK+ssdcnM4ee7uQAEpDUD+WMzeVnd58b0qy92t9RIKYEaKrfd+lZWRxQENQEFyflzwvSsOGPtAEUT709H29yRNKX+I2fxkZvpvnasnZreyTfgX6NAVrt4OZWaQlA2kGW6r+V0pBw1oualFI79BCzdR/xcEcXuTCqj//xj8AFzN7VEOAAAAAElFTkSuQmCC;" parent="_OEPE8C7rkL7k7jzLjAA-25" vertex="1">
          <mxGeometry x="130" y="3.169999999999959" width="33" height="39.96" as="geometry" />
        </mxCell>
        <mxCell id="ONclmi-p_48liSY1FyFz-52" value="&lt;br&gt;&lt;br&gt;&lt;br&gt;&lt;br&gt;Authentication Services" style="text;html=1;strokeColor=#000000;fillColor=none;align=center;verticalAlign=middle;whiteSpace=wrap;rounded=0;strokeWidth=1;" parent="_OEPE8C7rkL7k7jzLjAA-25" vertex="1">
          <mxGeometry x="230" width="200" height="80" as="geometry" />
        </mxCell>
        <mxCell id="_OEPE8C7rkL7k7jzLjAA-17" value="" style="endArrow=classic;html=1;fillColor=#1ba1e2;strokeColor=#006EAF;strokeWidth=2;shadow=1;" edge="1" parent="_OEPE8C7rkL7k7jzLjAA-25">
          <mxGeometry width="50" height="50" relative="1" as="geometry">
            <mxPoint x="16.039999999999964" y="9.999999999999773" as="sourcePoint" />
            <mxPoint x="120" y="9.999999999999773" as="targetPoint" />
          </mxGeometry>
        </mxCell>
        <mxCell id="_OEPE8C7rkL7k7jzLjAA-19" value="ETL and Orchestration" style="text;html=1;strokeColor=none;fillColor=none;align=center;verticalAlign=middle;whiteSpace=wrap;rounded=0;" vertex="1" parent="_OEPE8C7rkL7k7jzLjAA-25">
          <mxGeometry x="20" y="41" width="76.5" height="20" as="geometry" />
        </mxCell>
        <mxCell id="_OEPE8C7rkL7k7jzLjAA-24" value="&lt;font color=&quot;#3399ff&quot; size=&quot;1&quot;&gt;&lt;b style=&quot;font-size: 11px&quot;&gt;IAM&lt;/b&gt;&lt;/font&gt;" style="verticalLabelPosition=bottom;html=1;verticalAlign=top;align=center;strokeColor=none;fillColor=#00BEF2;shape=mxgraph.azure.access_control;" vertex="1" parent="_OEPE8C7rkL7k7jzLjAA-25">
          <mxGeometry x="370" y="4" width="40" height="30" as="geometry" />
        </mxCell>
        <mxCell id="ONclmi-p_48liSY1FyFz-50" value="" style="shape=image;imageAspect=0;aspect=fixed;verticalLabelPosition=bottom;verticalAlign=top;dashed=1;image=data:image/png,iVBORw0KGgoAAAANSUhEUgAAAV8AAACPCAMAAABqIigoAAABI1BMVEX///9ZtNlctdny8vL///3//v/9//////yayuP9//71+vy41DLH4/D7//9Usti51DgckeAAid6RyeMAfNcAgdwAht0Wjd4AiN7g8Peq3Pfu9vrZ8Px7veIiktvo9fWa0+9Yqu1HrNXU7vR8xOduruHo6Oh0vd200SOtzQA4ld0AkuPF3/F+xfYAgtfY6/u94O+n1+r4++/G3HHz9+GFx+Pr885PodzU8vpfr+ri+v4ynOHm77/L3n3Z56HQ4YvW5Zu+1lLh7LbO4HbB2l7s88wtpNHS44gAdNS11+292/OPxe6SyuxmsOG83Og7js4iiNOuz++Ftd5rp89+z/NRq+Kex+xEl9KGwe8kneKd1PWq4vrB2eWJvt5xvOVjuu/I5/+dwdmvdTsqAAAZy0lEQVR4nO2dC3vaRtbHBzJISJFUCZCQpWAb4mLLhEsaR3HoLdluNwLcYHedeLPrNPv9P8X7PyPACAs3bpuH8bs+yRMbXUYzvzlz5pwzI8K+fnAvX06+ZiV2L19OSuzBpqvw/1oe3PP9onJn+Ab9o3ax2B74+qZrciu5I3zNftsqQIpWseJvujK3kbvBVy9bxblY7bsE+E7wDY4KxSsptFvKpmv02XIX+Pptq7gshaJxZ7zKO8B3FS8B7m+6Up8r8vP124XiqgDwHTER0vMNc/AS4IG56Zp9lsjO1yjm4SU3YnAnHGHJ+Rr5cAXgcrDp2n2GyM23v057hY2oBKr0RkJmvsrgJrwAfCS/BkvM1xxYGbwWSfZIW3rA8vLVBxm312oW2u12sdksZADLHitLy1cvZ1S1WUz8AGK0m9lYWXLAsvINjjLa26wsLEG/uXymUAw3Wc3fFUn5Bu0VvHTw6dOn9MNYNsKFgmVstqo3i5x8/az2pvPYt9998833RDixlvAWLKljZSn5+pl8ZLFgUTrn+33IwTfPlpWbUu4EeNMVXi8y8vVX3F6riEns2/2HX0EOflAx9TWX8AKwNZBWgyXkGxZXhMwD/3Gf8H718BUUuG8t44U0pU1GyMf3esrBQpymXudbWBJpsz3S8c1JmInp7XXKd/+bp/MJrpABXJEzFSEb35WYeAYYLpj63cHDhw/3Xz2fz2+FrFhtKTVYLr4rMfGCbxnz19MfX3316jvgZb1iDt+CJWW2Ryq++iB3raJwVBExxLNnz8j9DcplKPAqXgIsYawsE1+lnIvXqpTLl1dBWlDG53bzOt+CjNkeifjqR3nGoVAETgDuzFxc/1J8TrfzrAK2WpttwnWRh2+Qi9dK8ZYryWz66qWfy0e5gIuGZJGGNHyze3RW8YLvzP/yy+U54DzCssXKsvANcpfhreKcZnmuvwu++YCtglyAJeG7mnKY4W0vYLYrM77GFfJKIU+Dm1IlI6TgqxjtHLrLeI+aC77Nq6OVYh7ggkyxshR8fx+vZS34WkvHy3kabBUk0mAZ+OZvIlk2DlZhme+SVS7narB1tNkGLcnm+Sr93Ji4sIwXtK/4kob+LmBZYuWN8zUHuXStowzeLN/Cwm1bG2nIEitvnO+1PTqFPLwrfK8BvsZYlq0nm+ZbKWS2M1jNJv42rcul8V/M4YtQeAlwM5UMZKu4vdGGzWSzfPVKZi8DJi7D9/1+pbKK9xpfAL5S8cog9P1w0M4QtoqhBG7ERvnqlewencWrV0FSmTu4xTV8F4Ar5d7sVNC3lvOWVlGCnRGb5KsMVvBeLfHoAnDlyjZf51tIHeFKZcnQtpoZwBLY4E3yNVY2kdCxZz/87YdnjLafVcrLtjmHbwq4Qvuj1Nd/+9trFb8kTcn84E3ybWenNhgH9fuDg/2DfUIVlivLS3F5fElDy5RXe/bqAPIT+kXPemvNjXtpG+TrZ9wy60inRWLaRLL/kBYxK1ntzuULwLCxT7+hpc+HB7S03M+eHmyqcXPZIF8ju1e6bALUbBGeNukcNT+HrwXz8Hz/YSroljCTtLznewVwoLBnPz1M+f70dMV1W8uXtk79fcZ3/+8YFIV7vjNpFVYBqt/N9Pd7vroad6P+PhSA9796fu30/zJfvZjd6q8LUoSX9kD5xc/hK7ZWqj8cAPA+bf1TBs3Vs5uVTfoP2bfimxQNPH8IR4D26CjZnSaFdXyb5OOq/yD/AXjRZ1n93bgDvEm+2UUhyxIE//6atujA/Dazu9TX8bWEC/b09Wuxt73SXN54snnzsNn4Lfv6YDMTbi02+d7Et9jMvH6hD37OaO/R5heKNpp/WMn9Ntv9JSD6YKHBhXV8m8XlACKsZBM8MuSAN5s/U7LbJa1me9A3+uluM6Ykzat91Hl8i81CqvFBedDvD46s7NwmQfZh03zpDeOMWGkmd5b4Sl/FKqzj25xtSfXbP+OenzN0Zcg9kGyaL+vnrB1bzZlfZVjWer7N2SKb324u1PxKypu3vSQb56vkrR5bzST9gp1wntG9zvfn2RG/mFXcmecgB97N86WQNucLYOa7cHyrmWt/rSW81/cCy/NCkQR8c79hp9gsZ/hl+ULBZwQNKwdvYfN+71xk4Lv6PuFMg+cKKvZSZ/iS/TBnn67vZJfqfUMp+Obv/Z3PXwEBXuZL81+qvf3mtYX5glWQaQ+wHHyZkrf7dx7QBUfNDF9r7r8leXjl2sMuCV+mVHJ2qM7DM73SvNo/aTVnb8yv5MpmeCV7B0MWvrnvDi3iX73884Lvz1Y4O5anvZLhlYdvzrtvBUowzGAmc256ssArv/bKxPfau5uCWNPK/36SoJKLV7qXZGXiu/J1ZwJZcZGMYM+ef/v8mZr+HuS+AFeRJGhbEqn4ZhLCC6Vs9kkrn75+tb+//9WPIo3u5+G1duTDKxdfprSsVbzk7cJEqD/SGtvD/YPvALh0lBO0yfkdEHLxvfpyjYxVhRv8/GC2CH/wPa667plZEqwF5YlsfOfJiGXFLOOw+HYCsQr/itM+vlW+RWkyOlmRjm8KODvwcfSn+R6d/a/A1191fa2+dJ5DKvLxpa/PyBpW0t9vrvjS5r8V/W3KlHLIiIR8aetOBh4tA307tw8HPzDK62SUtyhVyiEjMvKlvZOZqQv+w9Pv0gnu4KfUf8jMfxJ/RaKUfFmwswywKb4e5od92qRD3y+3ugdYtph4WeTky8xlwJZImKnPvv/Hj88pvMhsoraKMizDrxVJ+dLOiAXENMJYSCY2lmGPzk0iK19mJoVlwP25luphBm9Fau2VmC+9l7wMuE3vuNG7cdZdwisxX9rgvvyuUJN2kVjN5f3/TQkTZisiM18Wtlc2q2dfrpBnl8N6kZrvKuCsSLNH5yaRmy/931lr8cqacsiI5HzXA978qxWfJbLzpa0neXRleHf7c0R6vivJiBlemVMOGZGfbw5gqyhzyiEjd4Av/e+xK9p7Z/DeCb7MHGTwSvPlUJ8hd4IvLdxffW2J9DHxstwNvoy1KiJ8s6zMO1zyy13hyxR/cHR0tGPcKbp3iO8dFan5cs64ovE/XU4JJWmbyQXJzJernKsa/7N8NV5COfye76ooiqbiz58shTOVayVlQ/9hvcx8NU0xMbD/TJpMYdBdU1XRV39ZtW4lUvMFXK7+cQUWSEsAzE3Yh7+uXrcRmfmaKjeNP2V/cW+ppBs6VPjePlwTRWWP3pz88WgN3odaUlinduwzZUPJ+Jv4kuakZgvODfk4pElzbVLwh88O0T8Kn/lAPNUUXA+bxxW+qn+Lj5wKnd3NcbGiwBzMT+MDTGfierU4SEsvkQnV2MyS0r84xrKlK1c1pNvF74Fddz2D/IdZ/XFRepcybyUXZc5LnBdWmh0Ux9OKlcT9afPmrUkbydYMs5v50lbQTmcUwHyV0DYcUDATC1GpVJWrKJ4sJJk5VdOAGI8CJszXMJ0lukhTRJVKmUKNT6JQuoozDSgU0Rs4bYafOn5J02B4g+Oq7Xg+LlNUcoRLDCWacAZYScOtKk1eOFma+7aapo+SJDlNRp+2wVchw8smb2y7+gGmBo/CR5WZXFOpFqZG91MFUWNcraAaaklTS3ov7AXQE7L/SolrmngM3QIIqoLpEgwUcSs8HFM0mk7nzaE38dXItT+uebUxXBxFpU/cTOmicVwoGTFVFcEdD1VVVdSeHCsFnxQTB7MdS/GCfuF69bEOv0llmqlQ2wCaYKMFraju7pgqruM8sWvdCSYn8EQjqBLUIUQW/4AP+kCh7pz3nRo6rgOpe+cTnz6bJe4P3VpMXY0PeCJIMlF2yST3mgu0KvCTxmAEoZkd27YT6gyV5leNlJoGl2riDoKu0o1Eme5AFTRUhZOC3ZIvjSnf8+z60CSUKJeVFsLBDkqp0jNgP0wNz1BFN5aolqgawcVzRWOWBgU03o8c2xnCKFINyZJopLxkcHHpi6nngC8dQ+PO9wKVC+UF06egqRFijZ6mCYUmDgubxcNDz7Y9iFN1tsi3gw03J3hUCfxQhkmjgLRQNelWIKNWKfghHDk6qfGR67mndA4DDz8Uejh1MTSGtFnVqGeFwVKgwzhNLdTyQ8Qb+WLg77joTDeBdkHF5jY4hS8GGTGi2jFiSy9PCRuH9gs9JqtED+dXszfayBJ0GgoV1o7sjTaLgcUAbjXAl5G1EZ6ZLkYKo4FhknlWqVrmzJpCCUmtForDX4CvhwIcz3bcD9RmOqoDmyqMPCPV5+I5TIw/UyEDVdJS/43cDc4+1T1nRKdNsgzCjKviNqEsypKeUvk0vMhWCGt3K764JTj2iO9Y2HCT+b1wLkag6q3QDzSomuL7YYDBq7daPvOTgU/qwbSwn/QNGDJladKgQs1j0WknZG+pL3De9I1ffvFN1dT9vu05j/0QBaoo1w/gX4VGSHZW0QKjZ/hCf1hg9PstoosSrhoG/XXOe59GezZGiJeg1WqAQjiG9rbvm8z4xdBVmiPo9v42dRuIwcjSAdRWR2f4W7h3grt02FnSGb+/leCxjDSdBX7oszDpt/xtP6CZRqMnbJvCVN+OL1TTiKAItheHKnWwvudFc/EMaFo0vSR0rbdRdwfz31Yjiiax0z3ZhqobexHG6TROsrETCt1uONR8+yVZEQqueOf47XQ6fXucaD1bSBTZp7AjcRSd6frUbkxfMrL/Eyfyxgp00P/4fup4b+M+HSYzPus76G/tEc7rnaFju0MdeMbT6P0Dpuh7UfT4Ek/poKLaTtyYetNoHMD+mzBo5oddsioN1DaZRmkNoj7UEjr1MZo6zjS6wLUljU2mUTy2ne55/D46Uclsvvw1in4NyEjnREI38tW0ieNFx56HsQwl4WZcdep1h2pSnTD+0qvXPjJoUGtaf7MDpFuu4+Fv7cRk5scqZhphCMeKshT9o0I7rmef2PabCRWKxgW/VrseTUvVKOjUaMDgk/sO1hRT3XHAfqsd1iY0Pfu7rmN3MCbL3arjkQ2oTjAc1CvfJCS+wm00pqh2H53/pFq34U2oUd1zu47r9jgLG1V6nONVox6sjcrCYVW0yqu9D5LqvAYDKrHTrYkzXtUbkZ/6+I1Hbaz+83HV6Y7INoxqTm38FAPhtvZB5X7seHvQYQ9ePhnV2N6FNGzbaUBlthte9zEsFpnM6g5u2EKTPS+qnahsUkX7d3eh/l5ti8wnN+c6xuOaMwxsrx7rwmFQT6qH0KXI9qrHeqcrWud53XfQ313P2QuYAZa70B42cuw65jsl6UKhdo9RObt7ymeGn/qOhTbpLyyLyZ7UbPc3HHxScxrbsFYxxqETTbsY3UP30It2d23Prh3DDLGgUYM1aUS2A9UYzGrgOAMUa3g00jBcPdu1fVz7uGrTtdWK7zm1M5peL+v22x7Npeot5zfODdtzJ+Y5CqeiudbrwSD2I1JogME4n/G1iS8nvl5jy08STkgaiR/4Fy4NU5oEtHmhrannPjHPXbveYeRfJV2vHvX9np/EbTNIdtC435LBIITh23XAFx4WQOJac4K2njLuvweoJAj8MijEAWI0bcFX2Ac4CJz1q7Ybo1IpX64MXc+58FvvfHiHtnMSBr6BDqonqMMj4I0+9HrGjn2h+v0xBsZJfzDwSyzYq9vucScMt0C5hhmD+DpRv1dOgpO68z6EqXrvuRiwwn7djq/GLmpe3eBjoEgwNkqiGdq4btdP9DV8awPoKoxdnYhAzBPXro2YuhTfTGqe0+HvUPEyhcDb7wHAF/N60MJYF/6DQv7InK+2A70dKxwfvSjkCozW1KCRwM5qjenoKrWb4duCzRmqc/3lpaHrYsDgidBxZ49GJxtBxc8Z70FbGz0xYv0e2tiB/5Ck7oZB1wZUdwNmArMA+2fV81rkW/DEadRPOTlDtYTBD8mNwG/UX73hOEPGP6F5/8IcT54CKuXaXtSjxuTx7baobVTjuPeC5MIh92PJedmOUWig9hqeNwxxUzI9rJfJ3dJEgMRfgO+EQoc5X8Z6EfTUx1j13AvUKnKd3e3Wi1ar9QHBz+VV113ZB5S77WX5xo57bJKxrXRt59++qFzkOA2FnUJhTslnx1yraiWYIY+GCQoxoep2C8EMXIPHXbv2gUF/URyZJNOPYeICFnfdWKUgNjdAvjG/s1Wza4/BFePI9ZkIzJiOgQ2bUVrH1yDF6MC02Q2I3cBv7iXgLZyXEdo90ZXtPRiTDjPZKQb9fyhYSMMjJviaFBjN+arUTFz7m3voGJxvT51G4y3+UPkO+Krz5ONcf6mvmI/BP+RL+ou50iRv8Ld6WrcGuQneoa5eoiaYu8iZgc9d4sT3gwIvDu4pJhGdUSDNEocC2Rlf8u/5u5o37fQcpzahOES5Pd8T2KXjvb2LoUec0wj7Q2pQSRvX6C/xhcX2qkJqXffNGHHe3EZqsDZ2vLe3h0KdsV5iZbTuP2BElMy5fTDZFV/MiAkG8lhrOACmse0pIoi0cPgdXfBVVvhSECbs7y4qveDr1I91xF/KMfjW5pWrHprmJWa+ESOgJQpE+Qj24VSETwHG2rEJWwCt7oDvZMGX8k/h1LHjoVeH2aB+yXN/b+T7MvKEo+JQP0cKRU0co86u9tN4YY3+QgPA14sffXz08ePHR48uyz55jrOnwyURhVII50Q+Y+8w2yRpqo5C6wVfc24f0KkB4Jz3nUN42Qp7AM9rt3yZyn+TgGzhiv4ipoOZt90nGb7usU6TA/TXQ7UePRJ1Mxj4Il4To5NGuSr0F4ZVQeRw7NjDANoLBzPBBDfmsL9UXImSIBz6h7bQtIcH5nlna/hS0gaXv6sRCc8TLLp9is9Vmq5ORDKyxMHX/Uj5yJSvMtPfkkIG04uXNolReXS3ZpKPlSYISMVduEAjmENMlyJLhUtm9gHXa3P9xfj8ULPJUWqY+F0ZwnJnMhrarGkllsYXmlriIT2kBdV+Ao+a/DPia1I+ogJzu7XUWF7GgTNdpBa4jguE/iqUENQv0Bd9EfwztLzen+kvPQud+mJKD5kKdVuz/pTLl/IMsEZnGDfk78bHUGT3gnoYdLxhj2YUiuIb8JsCTCGYQqsifhP6i6fpqIyz1xMQzHA7zcZSnKUqZzClw2MqFAYCszeCP9QxEWvFrbKe6i8mIhYEc/uLsRgg5PPs+iNKESvjmj3d89O0ROjDUmtz30+d218WQvOgr2J+80jhzNT+opYGMTlN96m8RHyBkY+yE0pNsE45IL7grWEiDTha5hxTJo6FrldH97LHM3eagn7tBABczHHrk/e5fCmuUoUS7vYQXAcBHuMN4QIHu6jKxUuSF4g4Ytji461kguot9Ffw5Qb8MycanyZJ+ayxRWk3CtApoUGx8SdRaB8K7GDkXlRtb1r+FH569x5jkW/D2/XGo9O90zlf0mx0GNTeIDvN/QgA4svRaJRcvh+JfO684uBbP//04tN4SGFBhywH8UWxZkx8aSTpFxgM9smHrSSZxOSe6DTPNCaJMRp7cKcRNsJfm4xOT/rkEtpOfNr/dAptqI6F/0t8Kd2H9nSmiHASxtcvEebbB9XE8IDb4owRGMBuk4fvncJ1pcRMY0jSQOw5JgPiugh3iS/nM74wXHyrip6ou0I+UdY0TaWQd0eJHZXUeVjHbTBd72uHNiB4tW4jQLRNVg1xbPV0Hr9pqH+HzDVMDnkAaBaAINjtuu50RKfn9kHkJ0mnUKU6Gk65uydd4qtpQn+pfzAFkLWhmtVrFJhiUkG7cI9bhzJimFEN6m6NTGIfsw/FwyiwFusllc/5oqCS6oM61FdVrzO8ia8wwAHCWBcBNuXq0eVObTcIUQfHIWr1aoQBpp9TbI5Z3XPe7MBibNXcKvjCzYGtGKaJClQ6pHQazR3wIc6r3ptTKhTMnlSd2hDDfHuvJi51ujHxfemJUgVft0b2AfoZ4Bo3HQg0c8PprOOiem0q5tMZX4WHac6DKhUbtEAK/a26nrC/NYTfqZ+qn3XTyiHCNSmENGJXzDMO4mV4Xr2uS4V3++DYn7rppRSZ4zmP37hTCgfJUMHXtLvlG9f+1/gPKMg/Hw7jELqhYibvx/HwfHvsDf8Vx7sx1Nc7oWy4Px4e2vE74zx+S/mHEU4YIi8PT91/t4eTUbx3KnSOfCa0DIUiBNMoK8Ra8XD3fQtt0E9/fW/bh/E7n5xORtlFb3jm8+BkODzTacUMLtowPg4pf6+ROdjGHY1GFJ8lOq1gLFbDMNAE4OHZqc/EfMomURwTX5R1QY4GJezU5CyODu3h+btQ5I958G4Pk8lhPA7F+QSf7PjMJ7/XGJ9TdfZGAbnIbCcaxtsipY0QYK8+jYJ1S2/r+dKKlKr5PiYPrqQbCOjdVN3viXdUcSLsiWcz0+/1fC7ytKqi6vhppotDVIMg7OFsIDK35N9C8ShT7At3koYulQQ+UAYUTQVRpIQTAX3A+NDITtNgwgiksim1rYqVORhycYdOWWl1kV7mStjrQOiEWqIVFcYp/0uegchR0xoEramkDwwDjVbuqePFM3u+WPsE4CDshKiBotFiTHopLTaiRCqOVJ5MngETVU69i1vqbxb3Z53lK9et3rXSy8sfb7m3hi8vQt96d8Tn3JBbIc4WlkChFTdVoUSgngb260Tm/Q8yC616X9a8brpyds/3rxbO9cnUdvcCsXy9fgDe8/1jUuL/rVZdeC8lcr7v+f7VovEXWydvE8p55Sd+Z3LP948JnFOmbjOxl+Z+fvvrReHk/pErTht71l93z/ePidj7l25sZDe92nHP98vKPd8vK/d8v6zc8/2ycs/3y8o93y8rD9iGXqz5H5ES+/rBvXw5+fr/AAlLwt+2oEYFAAAAAElFTkSuQmCC;" parent="_OEPE8C7rkL7k7jzLjAA-25" vertex="1">
          <mxGeometry x="238" y="4" width="121" height="49.29" as="geometry" />
        </mxCell>
        <mxCell id="_OEPE8C7rkL7k7jzLjAA-26" value="" style="shape=image;imageAspect=0;aspect=fixed;verticalLabelPosition=bottom;verticalAlign=top;image=data:image/png,iVBORw0KGgoAAAANSUhEUgAAAggAAACcCAYAAAAalFMfAAAgAElEQVR4Xu2dB3iUxdbH/9t7Nr2H0BGkCAqodBVUsIEFRb2IBdtVr723q157wV4Ae0EFFASsoID03jskIb2Xzfbd+5zZkk2yyWYxlE3OfI8fF/YtM7+Z953/e+acMxK32+0GFybABJgAE2ACTIAJBBCQsEDg8cAEmAATYAJMgAk0JMACgccEE2ACTIAJMAEm0IgACwQeFEyACTABJsAEmAALBB4DTIAJMAEmwASYQGgCbEEIzYiPYAJMgAkwASbQ7giwQGh3Xc4NZgJMgAkwASYQmgALhNCM+AgmwASYABNgAu2OAAuEdtfl3GAmwASYABNgAqEJsEAIzYiPYAJMgAkwASbQ7giwQGh3Xc4NZgJMgAkwASYQmgALhNCM+AgmwASYABNgAu2OAAuEdtfl3GAmwASYABNgAqEJsEAIzYiPYAJMgAkwASbQ7giwQGh3Xc4NZgJMgAkwASYQmgALhNCM+AgmwASYABNgAu2OAAuEdtfl3GAmwASYABNgAqEJsEAIzYiPYAJMgAkwASbQ7giwQGh3Xc4NZgJMgAkwASYQmgALhNCM+AgmwASYABNgAu2OAAuEdtfl3GAmwASYABNgAqEJsEAIzYiPYAJMgAkwASbQ7giwQGh3Xc4NZgJMgAkwASYQmgALhNCM+AgmwASYABNgAu2OAAuEdtfl3GAmwASYABNgAqEJsEAIzeiEP8JNNRT/D5BITvjqcgWZABNgAkwgAgiwQIiATgpVRdIGLpcbbjcgl7FCCMWLf2cCTIAJMIHQBFgghGZ0wh/hdrtRbnJgQ44FvVJUSDEq2ZJwwvcaV5AJMAEmcGITYIFwYvdPi2t3oMiKG7/ORa9UNW4fFouTktQsElpMjw9kAkyACTCBhgRYILSRMZFTZsOEGTnYkW/BuF563H1OPE5N10Apl7aRFnIzmAATYAJM4FgSYIFwLGkfxXvlltlw2WeHsSrbDAWAAekeS8JFvaNgUEkhlbJvwlHEz5dmAkyACbQ5AiwQIrxLyf/A4XQjr8KOKz4/jDV5Vk8og8OFrjEK3HB6DCYPMiLJoGCREOF9zdVnAkyACRxLAiwQjiXtVrwXRS1YHS6U17qwIceM2Vuq8OOuGpRbXYBUChHS4HAhRiHF+L4GPDI6AZmxSo5yaMU+4EsxASbABNoyARYIEda7docLZWYncsrs+HOfCb/vMWF3gRUFZicstIwQmAiB4h+dLugAjOiixd2j4jCkkxYapSzCWs3VZQJMgAkwgWNNgAXCsSZ+BPcja0Gl2Ym8Kge25Frwy+4arDpUi6JKByqdbrhIFJA4aCoHgtMFmdON3glK3Dk8DuN6G5BokEPCWZWOoDf4FCbABJhA+yDAAuEE7GdfZkSb04XiageyyuxYsrcGC3ebsD3fCpPNDafcay0g38OW+B+6AYndhWStFDedHo0bz4hBWjT5JdRFOQRmZPQkZnSTAQIWmxO1djfMdjdMNheSDTLEauWQsOPjCTh6uEpMgAkwgdYhwAKhdTi22lXIWlBlceJQqQ3rDluwaKcJKw6YUF7jhE0igZtCFOjLXwiDliiDgKqRXwItOTiBC3obcMeIOJzaQQ2FTAqbwwWzzYUKiwvVVpcQIcUmBwqr7Dhc4UBOuR15lQ5kV9jx1JgEXDHAyAKh1XqdL8QEQhMIFPD0/If59Ie+AR/BBBoQYIFwnIcERSFQcbiAw+U2rM8xY9XBWiw7WIudxQ7U2lwea4HwL2hhZemavmNFHma35z+H514SlwRqBTDmJD3G942C3eUWAqCk2oncKjsKapwoq3Wi1OwUVgOH05vKma4hlWDGFSm4blC0p06tWFwuF3w8fJelZRDff614K75UKxKgPvNNXt4tQcTeIK4m7iFsVgEal5e6GoMSTN2AyerCvkIL9hZZsbnIhjyzSzza6VoZ+icr0SVBia5JamiUHksgs2zFgc2XAguE4zwIrHYXNhw24489Jqw+ZMbGPAtKTU7Y3W44yafAtwTQ0rnY65go3s5ut5jDVQoZ4tVSZBhlSI9WoEOsEh1iFdDJJJi3tRp/7a+F1e2Gi/wZSE/Qf1IJ3D7fBu8LHU43SKvMuDQF/xpobFWBQC/ENevWYc6cuXA4HP5e6X/KKbhy4hWQy+XHuaf49sEIkGZcuKsaO/MtqKx1otriQnGNAw6XG/sqnaiw+yWDOD1WKUHXaDmMKimSjXJkxCrRM0GFbglKxBvkkIZrFWuD3WKxUWRSLRbsrMHPe2uRZ3LCYnfB5HDD7lVdpAd0CilUcgk6GeW4oIcO5/fQ4eQ0To7WBofEcWsSC4Tjhh4if8HabDOeXlCI5dlmmOhlSqLA51/QsG6Bn2f0m9c6IHEBMjdN3hLIZIBOI0OyXoYOUXKPGIhRiP9SjXKkRSmQZJBDq5KitNqBe+YW4JtNVXBqWhDZ4HSLJEwkEK5tZYFgtdnw5Zdf4s+/ltZrdXp6Oh556EHo9frj2FN866YIkBA47e1D2JxvPSJI9N2brpOiW4IKY7trMbanHl3i1VDQM9DOipNEVZEV09dUYM72ahyocraYAH0I9IiW46bTjJg4wMj7sbSYHB/YHAEWCMdpfJCvwZ4iK/7zQwF+21UNl1wGUFrkhu9FnyigP8nmSFYBSnXgBhQyQKOSIkkvQ2aMAl1ilegcr0RmrALJBjlSouRI0nvEQDDTY165HffNK8C3m6vgVB1fgVBSWopXXn0NeXl59XpEqVTi7v/chV49e7L59DiN1eZu+08FQsNrdzXKcNeZsZh0ahRitIqw3WxOQEQtqpLD6cJfe2rw+K8lWFlga9E5wQ6i18dl3bR44tx4nJyqbTf8jhgYn9gsARYIx2GAiN0Xa514dEEhZqyqgF34GNC3VIA51rtEQH4DMqcLUrcEMoUERr0cXeMU6JeqQs9kFXokqpASpUCUWoIolQw6pVQkQ2rJWmS+VyDMOgEEwuo1a/DhR9Nht9uh1WqhVChQUVkpoiwGDx6Em264gZcZjsNYDXXL1hYIdD/6Gh6apMTHV6WhU4KqzU9yTqcbi7ZV4dq5haigRGf/sJBIOClOge8npaJXquYfXo1Pb88EWCAch94vMznwzvIyvPFXCcrsAGReByOXG0qXGwoJoFZKYdTK0ClWjs6xSvRJUqFzohIpBgUMaimMain0KilUCikkPrNDGH6M1OwTRSA4nU588OFHIJFA4un00weLXlm1arX4My4uDo8+/BDi4+OPQ2/xLf+JBUG40QSMS5/PrLO+a0KjW9Akd1qiEq9dmIghXXQtEryR2FMutxt/7zPhsm/yUFQbXBwQC4VMgkSNBD2j5aiyurGt3AGL001uQUELnTMsXYU5k9MRp6eFQS5MIHwCLBDCZ/aPziCnxK83VOKZX4pxsMoONy0ruN1QSiXoEafAoDQNusQr0D1ehYxYBeJ0UmiVMuiVUmgUEsi9YuIfVcJ78okiEEpKSvDyq68iP79ATAT/uvYakGj46utvQJEN5KD479tuQ//+p7TZiaI1+vN4XKM5C4JaLsFjQ6LRM0EJmTeJl83hxv5SG9YUWLEl34pDVc5mJ7nRmWq8NyEZnRPVx6N5R/2e2aVW3PRdPn7LsgTaD/33jVFKcF43LW48LRrdktXQyiXCAfRwhR2/7arBzI1V2FtR59QbWGFyZLz39Gg8fm4CZ0896j3ZNm/AAuEY9is5Ia3LqsV/ZhdgTa4FLhX5HEgAmxMZBjkeHR2PCf2ioJZLxX9H21HrRBAIZDFYv2ED3n3vfRG9QMsL9917D9wuF955732UlZWJHjpr1EhcdeWVUKlUx7DH+FahCDQnEKLVUmz7TyekGRt/wZqtTuwqtGLWpip8sKGqSdO6Qgpc3y8K0yYkQ9XGti6ntOmvLinB40vKfBHI9XAblRI8OiwGN50Zi2ht8CieJburcfeiYmwuDO63kKiRYu7VaTijM1lhQvUm/84E6hNggXAMR4Td6cbHq8rw9KJi5FlcAL39qFid6GhU4LkLEjHp1OhjVqMTQSCQz8HnX1D0wl+i3SkpyXj04Ychlcnw+htvYO/efeLfo6Ki8OTjjyEhIeGY8eEbhSZwpALBd2WK5Fm0rRJ3LSjCwergJnaa5H65Lg39MtrWJEf5DS77IhebS2idsX6hZZlHzojGw+cmCAtic2XpnhpM+jYPuabg/G4fYMArF6eIZUsuTCAcAiwQwqH1D48lgfDJmnIhEHJrnY0EwrPjEnH1ae1LIFD0wpNPPoXqmhqxfDBo4EDcesvN4n9/P2cu5s+fL6iTs+LNU2/CGaefHrIXSHQUFBbCRXmij7DExEQLUeIrVqsVBQWF/r/rdDrExsbUS1Ud7FZkITmcm+uvi0wmQ3JyUiOHS7KeFBYWwuFwii898rfQaDwOZjU1Ndixcyc2bdqEAwcOgkI/p950Y5PWFF/79+3bhwP7D+BQdpa4bmpqCjp17IiePXsiLTUVavU/N9v/U4FA7aNrzN1YgZvnFaPc1rjPaHXi8m46zLwmDRqfqG6mXylnwOEKG9ZQsrECK/aX27GlzIF+0XJkRsvRN0ON0zpoRQiwMohVospMGUMdQb/qaeI+OUkFWRNJwigvxKFSK6pt3uRRAfWk6blDtNxvDXjnrxLc+XNJ0IRS/ROV+GlKOlKjlSFHMGVBfXtpKR74vTTock26QYbfp6SjR0qdwyL5PhRVO0RStMBCRoZOMXIYNHLh2WS2OZFdbsOaQ2bsyrdge4kdu6qc6Bstw+kZGpzZRYs+aRroWhIF5b0R1beg0o41WWbsyLNgZ4kVG8ucUEuBgfEKdIxVoFuSSlw3wyiHTi3jpcWQo+DoHMAC4ehwDXpVEgifrinHUywQ/HxWrV6DDz78UPgcKBQK3HLzVAw87TTx+6bNm/H6G9P82RWHDxsm/BMo9LG5kpuXh+dfeBFVVVVH3LsTL78c48aN9Z+/d98+PPPsc/6/DznzTEy5bnLIuthsNtxz3/3+ukQbjXjyiceF42VgKS4uxgsvvoTikhIhOm6/9RYMGDAA1JZvv/seW7du9XPo1KkTHn7wgUYTPImRwqIi/P7771i9Zi0qKyuDtp/EDflzXHTBBUhKSvpHL9/WEAhUSdrv494fC/DhxuqgE3OKXoq/p2aKqIamCoUO7yqw4KNV5Zi/24T9zeQR6GyQYWIfA+4YFotkI4VT1tnfNxwy4fJv8nCgsnEeAq1CgjU3dxDRAcFM9hW1Dox8LwtbSuyNfAoMSgkWXpOKod0MYuI996NsLDvcOH8E+Rm8NCoGt4xMaFKINGRA1oiB72WhwtrYa5FWJ94fl4BrT68bc+QL8uLiYjyxxLOE5yukl74cn4TxpxhxsMSKV5eV4afdJuQ1YZ2IVUlwQXcd7hsei56pGsibya5KUdrkc/HhqnL8sKMGO8sdQf0ufHVJ1khxxcl6PH1eIqJ1nCjtiF9m/+BEFgj/AF64p7JAqE/MYrFg5scfg0QClfj4ODzy0MPiTypkXXhj2jRkZ+eIv6enp+GO229HSkrK0RcIV1yOcWOPnUCgyfyZ555DUVGxEAi33XoL0tPSMOPjj/3LLL5GBxMI5My5b/9+zPr2W+zbt1+ICZr0KMGU0RglnD1LS0thtXrWqum3tLRU3HrzzUhLSwtpCWkKeGsJBLr+sr01uPjLXJQHmeQoj9fcq1Mx5iRDUEFDz9a8zRW455dS5FY7mnR8DGwHWSYGpqowY0IyTkpR+7M42uwuTPzyMH7YXduo2UqZBNPOicXUEfFBsz5uPVyLkTMOo4yWEBuU8zuq8cU16YjVybE5y4RxX+Qht8EXPJ2SaZBj9e0dkGQMbT3w3YL2UXlsXj6mbagO2vbJpxjw4aUpfouJ3eHGK3+W4JE/ShsJhLdGx6Frkgp3/VSEXeUOkaW9uULSqke0DC+PTcR5vQxNOlKvOlCD+xcUY2W+tUX9Q/ccf5IOX09KE9FaXI49ARYIx5A5C4Q62DSB0dfx66+/Ib6aqQwceJrId+AzfZOpfO7cH/DTwoXid5o4b5k61R8G2VTX5efn4/Vpb6K6BRYEevfRfeg/X6Gve1rOOKlHD/+/HW0LAt3ooUceFYmiqJ2TrroKOTnZWLb8b38kB1lYaGLvmJmJ/9x1p58TsSQLxLS33kZOjkdM0fLE2LHno1+fPjAajUIwFBUVYeny5VizZg1sNk97e/Xqiak33YTYmJgjehJaUyBU1Dox6fMcLDpkaVQXmoReHhOHO4fFQdFgWYCcf79dW447fi5GqSXEbBaklWekqfDlxBR0jKecCx5LwscrS3HDvOJGX7j061kd1Zg/JaNRZAAx/mJDJabMLmg0AdJ5r5wXj7uGxomIjllry3HTvCJUe/dHCazWZd00+HZKh7AsO2Q9WbijChO+LhB7qzQs53dW4+ur02H0OjvS1/z0NeWY+kPdspl4xiTARZkq7K10YkeIL/yG9+hulOHLK1NxWkddo/uXVttx4cc5WJkfXhKoN8fE4Y5R7Hd0RA9nK5zEAqEVILb0EiwQ6guEZcuXY8bMj8XkRZPfpKuuxNlnnVUP5+bNm/Hm2+/4J/BhQ4fgphtvbBY5XY98Bhpu/BTspMqqKnz++efYum27+JkSNF111VUYNXJEva/qYykQfL4Y23fsEP4HXTp3xnnnjkGXLl2g1emEYNBqNP760THTZ87Epk2bxW9xcbG4ZtIk9OvXr5GvQ21tLX77/Xf8OG++iBqhe9FeF+eOGXNEVoTWFAj0FfzA/AK8vS740tDdA6Pw7LgkaAPWu2kt/Y9d1bhuTiHygnyNU2bG01LVUCkkYsOj1YX2RpM35Sm7e7ARz4xN8n+p0rGXfJIjJsmGpbNRhp+vyxBhh4Gl1urEYwsL8fqaxvVP1knx6+R09MnQggTNE78U4fml5UFN7PeebsTLFyWHJRCoHrsLLBjxYTYKzY2tF/3jFVhwQwZSAnwaPl5XgetnFzRqH/Gg/ArhSi0SQeO7aTB9YhpiApYEKFrjgXkFeHd9FYK4mKCDToo+CSpQMtnDVQ5sKqnro6U3pGNYV06z3tI5prWPY4HQ2kSbuR4LhDo45HPwznvvYd269eIfySnwvnvuQUZGRj2C5eXlePqZZ/3hjhTl8MB99zVawz+SbiQRMffHH/Hrr7/5N4iiifKSiy8CrdMHlmMpEOi+FM5J/gsn9+qFa66+WjgYBitik6s1a/DBR9NFG5RKBa6cOBGjRo4EOUQGK+Sb8fmXX2K1d2mna9cuuPWWW5BwBImoWlMg0Ffwi3+V4JFf65u9fW2Y2lePV8enQK+ua1e5yYEps3Lx415zvaZSBPFVPXW4Y3gcusQrxVp+qcmBL9ZW4tWV5Si31Z/+UvUyLPwXRUpoxXVMViceWVCIt9ZWNZooydr9xeXJuKyfsd4yQ16FDRfNyMb6kvqigibOi7tqxPICOfPR+v9dP+Tj/fXBhdD/RsfhoVHxYQuEvHIbzvooG7uDiJpEtRTLb81Et8Q6H46mBEIgSHJwPD1NhVEdtbA63FiZY8byHAsKal1BBYRBIcH7FybiqtNi/D4ahZV2nDM9C9sacCFrxcXdtHj0rHixVwz9nfajOVBqw+oDtdhSYMFr41OQFMWJno7k/dYa57BAaA2KLbwGC4Q6UGRKf+W110FJkqiceuoAsR7e0AGRTP/fzPoWfyxeLL6ONWo1rr3mGgwZcmbYL9DAbqLr0jXnzP0B5AtBX9Ldu3fDzVOnIr6BAyGdd6wFAt2TLAH/vu12dOnSuckRVmMy4eOPP8Zar9Dq17ePsLAERmA0PNmXe+K99z8QlhliTpEjpw4Y0MKRXHdYawoEuuoby8tw94KioPU4N0OFryZniDV8KjTF/7CpAtfNLURVwIRPE/LAFCXmTU5vtI5PVoobvs3FN9tN9SY4igB8dEgMHj8/0T+uFmypxIRZ+UG/eh883Yj/jkuqFwXx155qnP1JbiMLhUomwfdXJGFsH4+goDrcOCsXX+0wBW3nuxcn4dbTw1/yKatxYMz0bKwPkhOBfCfW39ERvZNaLhBOjlfg9fMTMLyb3m9ZoZ0mKffCfxYUiWWIYFYG2gvii2vT/edszrVg2AdZqG6wsyeJuDkTUzC2r7ERBxqjVWanEINNRYyEPVj5hLAJsEAIG9mRn8ACwcOOHv7f//hDTPw0QdHkTBEBFKVA6++BhY6lyfmll18RX9RUzjzjdNz4D/ZmIKGxdes2YcEgcUCFwgrvvedupKakBBUex0MgjB59Diiaormojf0HDgg2ZrNZsLv2mqsbLdMEG7G5ubl49n/Pw2TyTFIXX3QhLp0wIezBfSwFwnkZKnwZIBAonPGar3Mxe2f9iVYnl+Ct8+IxZUj9SBFf4+ZvrsTkuQWNnCHJYXHJ1A7+kL3CKjtOe+sQDgdZuhicqMDCqZl+sULXnra4GHf/Vtpo0uwbJ8fiWzL9KY8jQSBQWufvrkzB8O51ob4+fvRMzl5fgVsXFKMkiDMmpYHfdmcm0mM8YmRllhlDPsgSe80FFnISfXp4DO4cGS+EAOdxCvvxO+onsEA46ojrbsACwcOCJnramGnN2rXi73Gxsbj/vnuRmpoatDfIJP7iSy8j5/Bh8TslS3r6ySeOaAto4RyZm4e3333Xv3MkmfMpfJJCFxsKFF+FjrVAIFFAkQwD+vdvdoSSPwElmqJC7XjogfuFr0KoQr4IDz78iD8U8vTBg3DbrbeGOq3R760pEKhv3vi7DPcsKA5ajykn6/DGpamI8m5NTib982dkY0sD03W8VoYVUzPQpYmQyP1FVoyaeVhEOwSWHjFyLLmpA1JiPNEDVocLL/xciGdWVDayCsSqJZh/dSrO7GoQx5osTkz8KhcL9taPfKBJb3J/Az66NMXv3R9KILxzEVkQosO2kJEj4JgZ2dhQ2DjxklomwdowLAi39Dfg1YuT6/l7BLIiv4LLP8nBj/vrL+3QMTqFBD9dmYKRvTziYk+hBaM+zEZekL0mqCtHpqtxz9AYDO1hAFk6yE+0JZvNhT1Y+YSwCbBACBvZkZ/gFwgLi5Frbr+JkkpKSvHc88+LsDsqfXqfjH/ffnuTiX/IX4HCIVeuWi2WGRQKuZjMaPIM50VCExA59H00YwY2b94iLBm0Tj9m9GhMGH9Js2mcj7VAMBgMePD++9ChQ4dmB9ysWbOwYNHP4hhy9BwxfDh0Os86enOFEieRFYf8MKhQAqWnn3oy1GlHVSBQAp0nfynGC8vLg9bj3kFR+O9YmrSk4it99UGTmOgtDSIBNHIJruytB+0FEaxUWVz4cbcJNQ1M3hR3v/jGDBHPT4W+eDcersW5Hx9GSQPHPwqkeHx4LB4bkyCWDXbkmnHZV7nYWVZfdCRqpfj+ihQM6+ERElSonXfMzceHG6qD1u/Zs2PxyNkJYY1tulBOqRWjPsrG/iD5G/rEyrHoxg5I84ofOr45H4TXxybgzqGxQUM5fZV+689i3PlLY38RWlKZNjoON4/wbK5WYXLg/I+zsSo3eAQDWRKoz/rEKTA4U4OJvQ3o31HrFQtsVwj7oWzFE1ggtCLMUJcigTBzVRn+uzAg1TKNf2+q5faQSZEm5aXLluHzz7+AzRtaSPsvhHKQK6+oQHV1tT++v0+f3iInQjh7M9Byxrz587Fw0SLY7Z4Xed++fXD9ddchNja22e471gKBQhMff/QRJCYmNluvN6a9iQ0bN4YaeiF/p6WVF57/X8jjGh7QmhYEcgy8c3Y+Zm6taVQPekxeGh2HO4fHiXV/iuSbu7EcV80uhP3IE2bWuw/5Ifx+QwcM61wnsCjx0QUzc7Ai19po6eDi7lp8cWUa9BoZvlxfgSlzKMSwftVHZaiw6KbMenH8FMXwyKJCvLS8Iijv2wYY8PZlqWEJBBIzm3NrMfKjHFQ2cMCkm5ydqca313pyMPhKcwLh/UuScPPg5v0gFuyowgWf5wXtqykDojDjco9FkCJNft9RjevmFiC/iYRLvouQoyI5Rl7Vy4Abz4xG53hVsyIl7AHLJ4RFgAVCWLj+2cEkEL5ZV4GnFxUhp8IOl0QCJ23m6AAyY+R47oKkNp9qmZYXpr31FrZt296iMMSmiMdER4tlCUo73JJClgeaSD/59DN/VkOKiLjl5pvF13OocqwFQnR0tBAIofaeoOyOVDcqNIkqVXWx/KHaFPg75VZ45OGHwjlFHNuaAiGrzIpzZ+Rgd4OvcLoPBS7MvioV5/fyJEqiSfbDZaW489cSOFpJINCXLAmEkV3qBAJNvK/+VoTHl5aL7ZUDSzejDL/emImO8Uo8Or8A/1tRf8Knye6ls+Nw79mN4/g/WVWG234qhjnIfs3nZKjwyy0dIW0mK2EwofbV2nLcMK8oKI8JJ+nw2ZWp9VIi/1OBsHi/CWdP9+TdaFiu6GvArKvS6v3zq78X4ZWVFSICIlQhTyTyCZk2LgGDOul5o6lQwI7S7ywQjhLYYJelr56sUiv+3FeLTflmHCq2Y1epDXkldhg1MrxwSRImDfB49NJL8GjvvnY8NmuiVMAvvPgiSks9KV5pK2eyIIQubuFQ6EvwQ3xuvOF6DBkyJOQXhsfvIBcvvvyKf81drVZhynXXtWhvB6pbJAgESjB1/ZTrjmiPBQrr7Na1a+huaHBEawqEb9aWYcq84kZLBnTLJJ0My26syz1wNASCUSHBHzdk4NTM+uPxUIkFQz7IaZRngfZQmj0xBeefbMDo97KwpEHa5E4GGb6dFDxx0KZDJoz7Mi9o7oZ4rRTrbslEZjNppRt2VI3FgX99kYsfD5gbZT4k4fPQsBg8e35SvdP+qUD4fW81Rs/MbTRmhN/FKVH4eGJjn6L5myvw0G+l2FnaOBV1sMF3XqYKH1+VhuQwskqGPYj5hCYJsEA4DoODvkpqrE6U1DiRV2VHNm0mk2tGgl6BkV21yIhWCEcs+oAQIoH+9H4heoRD66zLHWuBIL7iN2wQ269MtpwAACAASURBVDiTXwGV0eecLZL0hGoTTfJ//rUUPy1Y4O+xM2k/hMn/CrnMQE6OH370EbZs3eYXX7QPwcUXX9QokVBTw+FEFQhvv/ueyINAhYTWs/99WkRkHKvSWgKhrNqOy7/MxZIsS9DshUNTlVg0tSN0FBsnzNYACYrrfixulDmQng6tQhq2V3yGXooFUzIa7fdgtbtwwze5+LJBWCJNvI+dYcTkQUYMmZ6L/AbRDpecpMMXE1PFZkMNCy2nDH4nC9uLG6/LUxMfPsOIx8YmtyjEj94nm7JNGDo9B7WN8zohRi3FvEm0B0T9hEPNCYT3LknCLSGWGL5aX46rv6+fiZHaqZJK8MpZsfh3EMsJ9VtJtR0/b6/G88vLcKDCETSM1MeLln3evTABUwY37w9xrMZ7e7sPC4Tj2OPCYOnNWEYeyDNXV+DzNRWI1UoRZVCIr6a0aDlitTJkRCmQZpQjziBHlFoKjVwKmRTiBUJCQvwn/nfLxcOxFghkAZgxcybWrF0nlhfoq5VSJ/fr17dFvbB7zx689977KCv3OLFFRxvx8IMPNrs3Ay1pkN/BvPk/+cUB5VyYMnkyyBGwpaWhQKANpW66sS4tdFPXaelmTXS+L9Wyp20tW2L4ZtYsLPQ6KZI/xoMP3I+uLYhiaGm7Qx3XGgKBlt7eX1aC+38rhTWI9ZmcDb+9LAnj+tYlJqJJcen+Goz5JBe2BmZ6+gJfdlMGOseHt1slPTq02VDDR4jW0D9aUYa7F9GSQH0iA5OUeGx4DK6jnSgDKk9P4VfjE3HloKZ9W176tQgPNtgsyXf1jlEyLLwuHSclq0OK5xqLE48vLMS0IEmd6HojMtSYc106Yr1pln33aE4gPHdOLB4YGd/kvgp0jXvn5uG1IFkjabOpby9NwrhTmt6ZlpJiVVmc2JRlxoK9NZiz3YQDVUHUDYAb++jx7sQ0KEiRcTmmBFggHFPczd9sZ4EFjy8qwrxN1bDLJeKB0EgBpVQCnVIivoq0GinidTLE6+RI1Hm2r02JkiMxSo4Ugxx6tRQKuUScQ+KBrqGg/x3k4SqosIsd9GZtroKzJdu1Ot2gnGYzLk3BtQONHlUSRqE9Ep586mlYvJ7zlDXx3rv/E9JB0HcL8rh/+513sXnLFvFP5LVPcf8jR4xoshbL//5bhAFSngAqKcnJ+PfttzXK2BiqGRRi+dLLL6Oy0pP9jvYwoMgLfYOMiw2vQ4mgHn/ySZhMnvC3pnZzPFKBsOTPP/HxJ5+Ka1NExnWTKZ/E0JCTSqj2tvT3fyoQaFfD2RurcPfPwWPqaYSNpAlucnqjHf2yy2w456Ms7K2oP2vTBPXKOXGYOjQWMlLRrVAOFFkw7rNc7CqtH0KYYZBhVLoKX++qRWBQRFeDDL/dnImOcU1vuLTlsBmXfHYYB6sb7xpJjxYlHHrtkmSkRtffbTKwORRuOGNVOe7/taRRVAYdR++Bt8fGY8rpsZA3eAc0JxAu7KLBzImpiDc0zmIocpMUWHHJFxS10TikkiI3Vt7cAZ0TWybQKKpja54FE7/Ow/6KxiKhf4ICK+/sDFUTUSmt0L18iSYIsEA4gYYGravuyLfgvh8LsWR/LezCMinx2FN9RWQbkUDidkMlkYDiiMmkp1JKoVXLoNNIkKCXo5NRjvgoOToYFcggK4RODkpgolVKhWigh62q1oGH5xfhmy3VR10g+KIXZn78id85kZYXKCtiOOWPPxbj088/959CGzxNvfHGRssMdL+srCy8+/4HKCjw5Jun/QtuuOF6kTGwqXwHTdWFJnpyrszKyhaHkPXhkYceFDshNlWoDmvXrsX7H37kT+Xc2gKBEiW99vrrqK72eP6TdeSGKVOOKEdEOP3gO/ZIBAJxofNySm14e3kZPtlc3Sj1se/68Wop3rsgARMGRDeyjlHugUlf52Lensa7LtIX+JeXp2BQJy1kUmmz/jz0NUulOadAejZv+z5PbEcdWChuXysDKhpkcnx0aDQeGZ0IDdnImyi0dPG/X4vwv78rgm5xTSmdKV30o+fEo7PYq6DuWlRnsrxMX1WGJ5eUoTTI/gt02/5JSiyakoEkY+OJvjmBQPd+cngM/jMivt4SCVlTKJvinXPy8enWmqD1Ht9Fg6+v6+Cf0Km/y02UFdHz7gm2nOhwuvG/RQV4ekVlIx+KTKMCu+7r3GTY6pGMWz6nZQRYILSM0zE7ir4Ift9Tg0fmF2JzkQ1uelIb2jzpfdYwx6n4N7fQE1I3oKQYfwmENYH+UyslwuJASWTi9XJ0j1MIi8Ts7dVYnWPx3CdUcbohc7kx/dIUTB4cDUkYFgT6gqeJfcWKleIu9GV31x134JRTTgl113q/Z2dn44UXXwKlGKaSlJiI++67V/wZWCgkkjZ52rNnj38zqPHjL8G5o0cLy0O4hRIL0X4HG70hhfS1Pv6SS3DRhRc0eSnaYfGj6dOxa/ce/zGtLRCoXsR15cpVXq4yXHP1JLEXQ7giKFwmdHxzAsGglOLHSSnoHOfhTZGlxSYndpfZsCnbjB92m5BrcjYZhUAT70NnRuPBMYn1Uhr76klD/vNVpbhtYYnI4R9YyPIQq5biniExOLebFh1jlYjzfg3TZF9V60S1xYlD5XbsLrbijAwNenv3YWiKw8JtVRj/VR6CRBHWO4X2I/jp2jSRojhUOVhsxRVf52JdE7sc0kdzplGOq3obcGoHNVJ1cpgdbuwssWLelmoszbXCFGRHSPFsaCT4ZmIqhnfXB116DLUXA7Xj2j56XN0/GilRMjhdwI4iK2asrsCvWWZYGhs+QNab9y9KxDUBezGQv8UVX+ais1GOi3rp0S9VLSwTPkFGAuJwmQ1TZuVhcU7jcNIre+jw2bXpvMQQajAdhd9ZIBwFqP/0kpRp7btNFXjml2Lso41XaPJuyWTse0cGOjdQZfz/7pngKRKaTI/kxmWWu2EDiZAW1NrmhFoqwfQrUjHpVGNYAiE7JwfT3nxLbEtMhUIL77zzDpFFMZxCqYHJCrF23TpxGk2ClHZ5yJln+L9MaCli1nffYcmSP4UzJE3mpw8eLJYjWhYx0bhG9BJbsHAhvp89RyRrokK5GyhhU8dOHcVXqq/Q75QEavacOVi1ejUkEqnfKbO1BQLVa9v27Xjr7Xf8aaNpu+orLr9MWEqaS9NM55KPBB0Tykm0qT5qTiDQkM3Qy2FQeQYXhSNWWpxNbvQTeA9y1LtzYBQeGp2AWF3Tgq602oHrZ+Vi/n5zk7sPdjDIkEj18GZgpHbX2lxiT4SCaicqbS48Nzoe946gDZKaHo155XZc/nkOVjSzZTGd3jNOgb9u7hDUPN/w6vRFvnxvDa75Nh+HTcE3QPKdo5EDsSopbE6g1OJCc8GC0QoJnhgRI7ZKJr+KYCWUQBDPFwkNrRQxGpn4si+scTRp7aHjR2aq8f3VaX4xRv+WW2bD2dOzsLvcCbIIdYiWIzVKjlMTaNwBpWYnlh62YluRLehOm8+fHYd7RsWHFfYZzjuFj22aAAuEE3B0kCGA1mZf+6sUL/9RiipywmrJF/7RagtVyOEGBX+N72PAg+fEo0+aJ9tcS8tfS5eKrZ19hbYvvvyyy8L+mqeX++IlS4RfgW+iponwjn/fLsQCCYIVK1fis8+/8GcJpA2ezj77LGg0La9zp06dxE6KgRMn+VA8/8KLqKis9LeD0kOffdYodOvWTfgj0Bf9vv37sXTZchw4cEAIkv79TxGWE6p7awsEMfE6HJj300+YP/8nvxDRabUYPnw4aAkmLTXVIxTobex2i2NoySQvP1/4c1w4blzIhExHIhBaOjYaHmdUSvGfQVG4e1Q8jA0c6xoeS9p3fVYtJs/KC7o1c0vrcOupUXj94uR6CY0anktm8Gd+LcKzy8obmcF9x9KSw2tnxeKWkfEtikAQ/ed0Y+6mCtz/SwmygvgjtLQNvuPiVBLcPtAoxJWGYjGbKC0RCOHcu3OUDJ9enoKhAdsz05hfdbAWo2fmwBTE4hDq+n3iFUJwdG+wtXao8/j31iHAAqF1OLb6VejBKjE58MzPxfhodQUs9BHgj3ts9ds1fUGXGxKHC4kaGSYPjMadI2KRElVnHmxJTWgip42R1q71fPXTZHXH7behX79+LTm90TFkjXj2uf/5v5hp58JHH35IRDPQ5P3kU0+hvDx4lrqW3nDM6HMw6aqr6pnpqR2LFy/BV9984/cpoOuRiKB8DvSnWF93OMSf1M6x55+HpKQkfDR9hhA0lCHxicceDZoA6UiiGHztoSWcmZ98gg0bNooNsHxFIZdDrlCgS+fOUKmUgg/tReFyOuFwOkU9b7/1FgwaNKilaOod15wFIdwLamQS9EtU4IVzEzCkq76RU11T16Ov8C05ZuGPsLvS2eTk3Vx9xnfV4LOr0+ttJR3s+LUHazDq49xGSxq+Y9N1Uqy8vSPSA1Iat4QD+RT8va8Gt/9UhO0l9iNqA33tJ+ulmHZuAi7sZ2xW7FCdmhMIUSopTDZXoy/6ptqSrJVi2vkJmNA/ul6/0fj4dFUZbppf3KSFp6lrGlVSfH1ZEs472XjUc8K0pI/a4zEsEE7gXqeXxqFSGx6aX4gftlTDTnZXYS30fAmKmDD6u1iC8DXEmzShNdpFi442F7rFK/CfkfG4qr9ReJK3ZDUi8Pa0tfPr06ahsNCzjS9tY/zEY48hJib8LW3pfFpCmPbW29i+3ZONkSZn2g1y2NChKC8vxwMPPey3HhwphmACwXfvX379FT/8OK+eSGh4H2NUFCZMGI8zzzgDhw5l4YWXXhJf7nq9Hvffew/IQtGw/BOBQNci68Wq1WswZ+5cf7bIwHv4BEzDfxs39nxccfnlR4TqnwoEMXxlwDUn6THxVCMGdtAgWktiK7zqkEjILrXhjT9LMWNTlfhaDbYVcbCr0q16xcix+NZMJAbx2g88p8rswISZOfijQVIk3zEXdNPi22vSm3VObKplVN+sEitmbazEq8vLUWJzt7gNcUqP1WDSaUZ0TVS3yHrRnEB49uw40JLKzE1VCLJho78J5Oc0IF6BaRcn4bRMLRS0SUVAsTnI+ZA2vKpodkkk8Bz6DhqeosRzYxMxqKOuxUIxvBHDR7eEAAuEllA6jseQQ9W6nFo8Mq8IS7PMcNAT6QJiNVL0TlCirNaJ/aU2WB1uuOg3Wgv3ZVX6J/WmkEa7G8O6aPDv4bEY3UMPnVIW9oubqkCm9r9XrPRv10y7DQ4dcmaLkxQ1bAZ9iVPSo/UbNniEEq37nnQSBg0eBJvViu++n93s5N0SLCf36onBgwcHXZunfA47duzEipUrkJ1zGKWlJWJvB5r8aU+DzMxMnH76YOFnQeKF/BF+nP8T3C6XiLY4d8zooBaE7+fMQWWFZ/mClkMuuGAcosLI1UDnkfWCBNmGjZuwb/8+FBeXCLHg29aZ9pyga5OAiYuPR8+Tegh25LdwJIXG573zC0WYGq3rV3pzARysctZLTUxZCukrU6OQIlYng0ElQ48EBc5IU6NnqhppRoXYhCmcPB7B6kuOh7sKLFi0uwbr863IK3egqNaJbG8So3StFOQ8SblEqB6pUQqMzNQIB8DuSaEnVmrvzzuq8MPu2kaTNzkUjuumxQW9j/yLl0YzRTdQCOdvu2qwLMeCvEo7DpXZcbjW46NAE2jXKBmS9HIkRyswKlODoZ206JqohFrR8mc0VCbFiX0M+GtvDb7cWo29hTYcrHSg0u6GQQZ0jVWgS6wSF5ykw7k9DUg0yIP6CFB9y00OrDlowuL9ZmwqsKKo2i4ySJZYPQKIAj066mVIMsiRHqPABd10OKuHXoRu/9PxcCRjms+pI8ACIQJGA207+8vOGjy+sAhbC61wSyToEa/Ew2fHiayLG3MtWJdlxoZ8Kwor7CJVrdijjwSDEAthWBXoiXW4ECWV4Lyeetw1IhanddAE9SKPAHRHtYq1ZjPKSktF+mayDqg1GsTHxYllBHKMPJ7Ft3Ml1Y0sC2aLRVSHBAeJFK1OB4Ne3yr1rDE7UW11wmp3C7M0lQKzq14CI/Juj1NJRegbhbtRuG2UJnxLQUuZkkWh2kzZSh2oMLtQ5P0MJic5qotOKYVBTXWQNfrqbek9jsVxFAFQZnKisMqBYq/4osc5VSsTjoNxepmwVhyJk2kogeDbrIkSMeVX2JFncqLW4YZGKkEaOX5GyUP6iAQyIl+L0hoHKmudKDE7hdigQk6UyRqJaE+MXg7tEX6IHIv+aG/3YIEQIT1ucbjw5bpKPLGwSJj+eqap8NaEFJzdXS+cnPKr7Mgqt2NzrgWrDpqxLteMwgoHap1u2GhFwufJ3JxYcLshcbqRpJLimtOiMXVIDLrEK1nFR8gY4WoygXAItFQghHNNPrZtEWCBEEH9WWV24o2lZXh+XiEyU5V487IUjAnYZ144yDkhvuKKaxxYfbAW83dUY+lBM8or7SDXNRfZ8wIzqvkWe70+DZTe+dHR8bhmYDRiQniQRxA6rioTYAINCLBA4CERigALhFCETqDfaQ4vqLbjkXmFWH2oFq9cmoyxPaOarCGlMK22uoRZb0O2Bb/sq8GaLAsKKu2otrthD7AmKBwu9ElV4ZmxiRjRRVdvW9gTCAFXhQkwgVYiwAKhlUC24cuwQIiwziUnKVpG+HR1GcadbMSYnqGztdF6LHkTk2WhoMqB9TlmLDtoxtZci9hJ0m53YXg3He4fFYv+HbRQyppPTRthyLi6TIAJBCHAAoGHRSgCLBBCEToBf3c4XcgqtQnnpNTopjeDCVZ1sZLgdKHWSssQTqzOqhVOXKN76NA9Qdlqm9ucgNi4SkyACQQQYIHAwyEUARYIoQidoL9792wKOydBYHP8e0DRFg4U6BBm7PkJioarxQSYQAsIsEBoAaR2fggLhHY+ALj5TIAJtE8CLBDaZ7+H02oWCOHQ4mOZABNgAm2EAIVFb8zz5MdoWPqlqNEpNvxdT9sIGm6GlwALBB4KTIAJMAEmwASYQCMCLBB4UDABJsAEmAATYAIsEHgMMAEmwASYABNgAqEJsAUhNCM+ggkwASbABJhAuyPAAqHddTk3mAkwASbABJhAaAIsEEIz4iOYABNgAkyACbQ7AiwQ2l2Xc4OZABNgAkyACYQmwAIhNCM+ggkwASbABJhAuyPAAqHddTk3mAkwASbABJhAaAIsEEIz4iOYABNgAkyACbQ7AiwQ2l2Xc4OZABNgAkyACYQmwAIhNCM+ggkwASbABJhAuyPAAqHddTk3mAkwASbABJhAaAIsEEIz4iOYABNgAkyACbQ7AiwQ2l2Xc4OZABNgAkyACYQmwAIhNCM+ggkwASbABJhAuyPAAqHddTk3mAkwASbABJhAaAIsEEIz4iOYABNgAkyACbQ7AiwQ2l2Xc4OZABNgAkyACYQmwAIhNCM+ggkwASbABJhAuyPAAiFCu/zXg3vwzqa/UWu3AXADkEDibYvnb1K43C7vb54f3HBDKpGKXz3nNCwS9E5IxtNnjkGUSh2hZMKrtt3hxu8bTVi4uhY1Zi+T+iDrodJpJLjn0mh0TlGGd6MT6GhLcR7WPzAR5sP7PUPBMziCDYd6/y6RSmE8ZSj6P/MJZMq2Nz5cTje2L65A1vZKVJXWQiLxwhFsPE+V2+2CWqNEardoDLgwFkqN7ATq2dapitvtRtGsZSj66i+47U7vReu/X+oGhgQOpxNmu1nwkenU6PbIRMSdeXLrVIavclwJsEA4rviP/OYfbF6F9zetgFsmg1tGkz48LzR6jzkccDud0Gq1kCnkdc+yGzCba+F0OgGFom5y8AkGmwPxGi2+HDcJSTrDkVcugs7ctN+C12dXoryGxJSvuOF2kZwCpMRUzBOeyYL++tS1MejfNTInSOvhfSjfshJLH70BLofDrw/q/keAWGggHoiHKioao175Crpu/aCIT4mgng5dVZfLjf2rq7F7VSmyd5SLLm+on2jyNMZr0GdkMnqNMEKhboMCwelC9ovfo/TH1X5o9M5wuEgsSCCTSiGXyfzvFbvTAbPN4nlGJBJ0f3wSUi8bFvB+Cc2ejzgxCbBAODH7JWStpm9Zjbc3LIcrJgqINgDuuk9Ad0kF3JXV6N2vL6JjYkEvNZ/NYMe2bSgrL4csIwWQ+15ubsDlBnILkaTS4ot2IhDKq5148dtybD9EVhiPhYW+IumLSCFzi5ed3UGYZJBKpUKAkUB4enIM+neJPIHgdrmw8/bRqN68HNUWT5vrpE/IIecXTAaNCvHjp6LjPa9DIixSbaPQc0Jl7U95WPzJoYBGScTYEKzcQIfeUbji8ZMhk9N48EmItsFAPAcuF7JfmoPSuSv9IqCkuhxmq1W0VylXICEq2t/3dqcdtfQbnSyTovsTVyN1wlAWCG1gSLBAiNBO/HDzary9fhlcccYGAkECFJfBVVmNPqf0Q0ysRyD4yvYtW1FaXgZZBxII8rrWk0A4XCAEwlcXXN3mLQgOpxuz/qzCN3+a4BLGA7cwH1ttDvTppELPjlphPdhz2IzN+8yQSuWQyaXi3/57XWxkCQS3G/aSPNjz9mHdfZNhKS2AzdtmrzLyjgPvOKHx4rGoC+HpGT6eKVLidkMpAWL6DkSve5+HuktfyKPjI/QpCl7tDT8XYOlXOSCLQv3p3w23BMg82YhL7usuxkNbLCQQcl6aixIhEDxjotpSC7PVIsaEWq6EQaPziyO7gwSCxfN3qRQ9nrwaKSwQ2sTQYIEQod344eZVeHP9MjhjoiAx6j0vcm9bJCUVcFbXoHefPjDGxghzufj6kUiw02tBkJIFgcyE4gdAzJKHi5Ck0WLWBde0aYFAgmnLARv++0UpTFbf3OiGqdaKoX116NdFD4d3xYHmgJ1ZtVi2tQZKhUJYEp6dEosBEbTE4LZbUfDcdbDu2wRTiQ0uh9MzXhwOuIQPi+dLmCYGjyBwifEglllcLrisVrhdTkjlCiEUaOJUKN3QxcphGD0JKQ9N96y9tJGy8dcCLP06B25nwOqS/+ECOvSKwkX3dmvjAmEOSuZ4BEIw9xTfa4P+pCUGIRDoRSJjgdBGHgPP1OAO/LxsSy1r4215f9NKvLVhGWxOJ1zeJQRfk2VkCpfKPOvnDQodKx55Oibw+8grEpL0Ufg2ggUCffA4nK4mX2r0Ay0tvPxdBbZl2f0rMy6XC3abDVeeEweDRi5WXETxXu+H5WUwWaVQyGV47voIEwg2C/Ieuxy27F2orXTC7XDB7bBDFZ8AQ/eesBYVoGr3DrhJOPjEossNp8MOKLWIHTwMErkcZSv/hqO8AOSsKJe7oDG4oR8xAWnPfNv2BMKXOX5hHejTS3jShQWhfQiE5qYH39vF7vAKhEALwqW8xNAWpiAWCBHai+Sg+Pq6vxCl1cKg0frXSOkNX15dDZPFAiiVQtH7HnIhCBx2SGj285mQvZOgzxEvWWfAdxddG7EWhF9Wl2DW4gLvskH9ziXzuJMc8xRRKK7VgOZDX3HSl7LThknnJECtlNYJDOGe4cIPy8pQZfYIhOdJIHSLHB8Et82CgicmwnJoByxVLjjtdmhS05E89mJY9u+BMiEJ5sJ8FCz6AZCQ85lLWBncMjUyb38AbpMJLpsV8sQUHHr9OTiri6FQAmo9oB95OdKe/qpNCYT1iwqw/JucALce/3qLsLak9zSIJQa5ou0uMWS/WGdBaOSp2eC7g5YYPP4J5NXrtSBcyk6KETq11Ks2C4QI7cV3N63Aq6v+wLmnD8WQ3gNgdztES2SQYt7ff2D19m1QdkiDW6fxrCN6jAZAfglQayH3/KAtJ4Ew+6J/RaxAeOKjvZi/oqR+2J53LZ0mPZlUgejENEhF++vc1ElE1ZisGD8sGhlJaiEeCBsFiBSWWbBgVSUkUgXkMileuCEuYgWCtcYjENLGTYDpwB6UrFkBlTEaaRMno2D+d7AUFggsjlorYs48C1GDh2PvC/+Fy+5A5o1T4aooQ/7cb6HSOKHStT2BQE6qP725Dzk7quuFDvusSeSDoI2SY+y/OyOpky5C3x7NV1s4KQqBsML7HHlfHk2EwjqC+SCwQGgTY4MFQoR247sb/8bLq37H+WcMw7C+g2Bze7zSZZDhh6W/YdW2LVB2zBACgb6cfS84FBQDNWa/QGiYESFZF4W5l0yOWIHw1Ix9mLu0qFGvup0uOG0OxCZnQKFWe52v6rfe4XBCo3RhzEAjEmKUwmO9qtaJRavLUVELKOVysWzz4o1xOLV7JFoQtsNmIuuAA6kXXoHKretRuX0z5Bo10q+4HsW//ojaglzxwWg3WRE74nxoe/XDgdeeh8vpQvqkf0HqdiLv2y+EQFBq25ZAIN+KrX8WY+V3uXBY68JeA9wP/I/RSUNiMfKaDlCo2mCYYz2BEPDuoNY3zBHi9UEwWwKcFJ+6GiksECJ0ZmlkdQ1wcW8TTWofjXhn43K8tPIPjDx1IAb16Asb7H6B8Ouav7Fx9y4o0pPh1qjqJ7spKgVMZk9YI82Aonjil8k8mKyPwg/jp4AsCZFYnpy+F3P+Kq5z2PS41cFlc0Cnj4EuJsDj3u2C0+1xxiPnQ5r87WRlkLgQGyUTUaDFFU44XTLIyVtRQscAL90Uh9MiUCBYD+2AzeyCy26HrmNXxJ09DlXrVkCT0RFOiwX587725tKgpRinWEPIvPNJmPfshtNSC/0pA3HolafgqswD+Ssq1G1LIFQUWTHvtT2oKLT5rW70DPhDHMWj4vHcUWllOPuGjug8gML92o6DpmivEAiz/U6K4t8CPzJ8QsG78kJhwbUWs+AikUnR7elrkcYCIRJfn43qzBaECO1GyoHw8to/hXWAnBKFChAPrAROWmsXDzFNagE6gCZDhxMSldKz9KCUe46hYH+zBZJaC1J0UfjxshuEUIjEQksMs/+sb0EgvwOZRIa41EzPC55Qud3exC8uxBg0KKswQy6XCQc8eheSTwL9Djz7UgAAEsFJREFUKZeRh7+HIxXSCS/fFB9xFoT8xyfClrUDDosLLhc5Ktph6NoLSRdcAfOBPcid9xVc3lA1YkMWF4fVBok+Hl0f+B9kWj32v/w4SGTIlBLSkpAr3W3GB8Fhd2HtvDysnVfgWZHzfzdRbgyyJpDjr0REcHjEogQZvQw4//bO0OgpuiPyi5PeA8I7143Dr/6I4tm0xOCRRyKypYni8EYxeL41JOj538lIGT/E88hIJUI0cIlMAiwQIrPfRJKkl9b+CSc9hfQABtpBHS5IffHrvjSxvhdeQgzclFiJHlzfrOcLZbLakGpyYOGF/0KCVh+RZB77sE4geBzyPV770QlpUGo0njaROKAlB4cNHVKjEaXXoLyyFvklJsjlck9CpCDZh8l60LezAo9fHYfE6IAcEic4KXJSzH9iImyHdsBhI4sJMXFAYYxBxoR/oXrnFhT8tUhYUci7kyI6nDYnnDY77Fag5xOvQq43YNd/74TEViPEgVTihkzRdgRC/v4a/PTGPpgq7B6tLZ4fT+IsrUGB1C5xUChlKM2vRnFeNWRSCeRKKUb+KxO9RyREfFKgql052PnMl7AUlQsxYMovg63C5BUILvQdfgb0MUYxdnxCwPeMiFdMgBVFHqOHW+WJopKnxcJ45RBIdaoT/Cnh6gUjwAIhQscF5UB4afUSuOKjgZioukgFimcvLAUqq8WSgXh2KbUyvfQ6pUKiVtXlRfD8WpcQB4BOrsDLfYbh4rgMz4QRYeWBd3fjx2XFnpZRiKLNBq0+GlHxycJ0Si8/J30dO+zolBYNvU4Fp8uNwwVVqLU4IKfU1A3T47gBjVKCS87U4sqReiRER9YXY6BAcNpdIg03/acwRiPl7ItRvX8XStcuFV/HjlqzWIKQxyZB3/0UGE89A4buvcUSw55n7gDMFWKZRSJxQSprG0sMNosTSz7Pwo6/SiiAQ1gM7Da7sChJ5VL0GpgOldaTmpycWw/tKEZJfo0QCTEpakx4uDui4iPHJyXYI5330ypsuPXNgLTsPsuBRygNGDsS+jjKqeJJt+wJh/X8T2LkT0UOwGIyw2mxeYS2WoGEJy6FLD4ylywj7PXX6tVlgdDqSI/NBaetX4oXAgSCJybLawcvKgMqqsTygYSWFchEmpkCaOkLOnjaE5oc6P9kEimGpHbAE5364xR93LFpTCveZc2OCjz64T4cyrPA5XJAIVPBmJgKKc1mbpdIo+x2OZCebITRQKGOThzOr0RNrQNKCgsNiGzwfRidnKnAtWcbMLinBipF5K031xMIlAGK8kQ4nWLZIPqUM1B9cA+q9u6EPCoO2q69oO/VH/rOJ4kMiS6LGZaCHNRsWoWS376HFDbvKGs7AmH/xnIsevsArCYHHHYnDDFqdOyZgKhYLVQ6GYxJKpTk1MJUYRPJkSrLarFvcyFkMlpqkWLgxckYfElaRIc95i9cgw23vCnGBT0DFTYTyqw1nvTakGDcpRcjJj5eCGwK+81dvxO2Wsoy5kZMx1TEd0r3P8VWEgi0PEUCQatCwuMTIItjgdCKr7ljdikWCMcMdeve6A0SCKuWwEnLBUZd/SWG0gqgutazbkoTYpQWSEsKcLzyxTx66kTr7eTHcNdJg3DQVIFd1ioMNibi+U6nQkUTawQVSqG8bHMZnpy+HzkFJqjVekTHp4hkUrThDImG9CSDEAdkScgpqES1yQ6lUlFvXwFyO4jWyXDeQA0uHapHWrwngiESS6BAoK9jEoxiIlCooe89CBKtEcrYRGi6nASlIRpOtxO23GxU794K044NMGcfgttcJvYeoKUFjxh1Cauy/qzLkfZU5OZBMFfZMf8NCmusEo6ZhhgN+o/oBI1OKSwqUrkEiZ3VYqkhd08VqkptKMoqx+H95ZDKPPtzaAwKXHJfV6R2j9xJsL5AACpttSi10hIDxLth7KUXISYhQSw/kUUhd+Mu2M0WISBiOiQjrmNacIGgUyHhMRYIkfje8FhhOZNiRPbd6+uX4vlVi4VDYgOLuD+EjxwYxUSQkQzotWJ92en1ySZLAb3cnC4n5JDith4DMCmzN8rsVryyfy3MTjte6TwIJ+tjIo4PTfx/bSrDkx/th1IGnNq3A/7caoXVakeHVCOMeo/lICe/AtVmO5QKpXBAE4n2haxyQylz4MnJSRjeWwOVMvKWWgI7raFAEOPAbockJgUd7nsFco0OrpICWEvyUbtnG6q2rYclaw+cNdWQKTwmZA8ZTwpmv0BAZAsEEda4uAhLPs2G3eIQk92Z43pAF6USaZap0SQM9HEKGOLkwrqw+c987FmXJzCIXBpS2lhdgh5DY3HODZ2gitDtn+sJBK/fktgsntZc3BBLDIb4WLicTuG7RIJbQBBLDB6/HV+x1gZYEFggRNz7M7DCLBAitPteXfcX/rfqD/Gg+h2uvc+oiF4k8x6pfZrbyPwnk4l193EZ3WGQq/DZwS3QyBQiVfNDvc/AxA49YXU58cyOFdhvq4ZRqcb96b0xNi4jIgmR7v1lTQmiNDL07WbEp79W4teNTui0KsHs0OEysaygUik9DlZuz06N9P9MFaVQuyqw9KMzYdBFlr9BsM4KFAjCD8PliVCQJnZCp8fehnnPVuR99iYs2XsghQMyJe054XFBoyUqsTBPs4T3XI+bv2dyiORMitVlNnz9xA5UFVuF34EhWoMzxnX3+PMErMQJS4IMwoKyYUkW8g6WC18VctHx7PApgVwtxdjbOqPLaZEZ9igEws3TvEsMdaNIOGq63eg/diSi4mO8ER2NR5nUt68LgHpLDCQQeIkhIt+hbEGI2G4DXli9GM+vXtKoBTTJUaSS+OYl8SCTwNUxDfR91C8mEW8POEc4L76zZwO+2rcZT/UfhXHpXWFzufD4pj+xsigHPVJSoZTJcWdqL1ye2DFiKXmMYxKUVDnx02orVu92oqTaiezcMpjMTiEOKIRRHCWVwmG1oKIwD3a7BUmJWix+exBiDG1IIGTtAJy02ZITDrMFiEpClxc/R9mvs5E7/UVoog2eJQSfpUD86RUGPoEgvPi8x5AFIUJTLbscbvz45k6smJ3lCWt1uhATb8Apg7r6Iv38496jFdxCCBzcnYtD+wpFRk2xwZUwIniUeUZvI2567TRoIlBUkkBYH0QgEJw6gRALqZKsBXUWNeG55KTcGg6/FYEFQsS+MhvPJ7zEEJmdub2kAJ9uX4dqm287wiDtcAM1TjtW61yoJac0uHF5h164JvNkWBwObKssQv/YZNjcLnywfzN+ydmDKK0OsVod5FIp7k/rjYsSOkQUoLxSB6pr3chMkok9FahkFznw3TIrLHY3rBYL5q2ohFtCYVieeHYR1lVRDlNlieeFL5cjMVaJxW8NbHMCgawHlFHSJVMjftLd0PboLZYSir56C5atf0OuVkBKjq2eZAAeh8ZAC4KwKIgNKuCWRGaYI1V//6ZSfHDXKlQUWTypkFwuaLRqnHr6yd621/c3oYmQhMCOrftRWlIREOHjtTyBXDrkuPDWHhhzYw+vBSZyHp38BauxnpwUAzco8SZIoq3PBowdhaiEGCgMurq2edO1U/4Ee6XJs0znsyBY7J40LMKCcCk7KUbOUKhXU15iiNCOo2o7aA0wRKl22HDfofXYXlPmed+7XTg/uRPGJ3UVTla1Djtm5e7GnyU5YsnB58+gk8nxQsdTMTAqIdQtTqjfF2+yYH++A5ecqUGC0eNgSUEc+/Joz3ogM0GKDxdU4LtlNXC4pLBbLaguK4LVbIKUzMYiqYtEhDIueWcgYtuYBYEmQrvZiqgxk6DK7IGir96F9qR+MI44HwVvPACYqyCTekLb/AKBLAneZQWxJbTXgkBf1pFoQbCaHfjs8Q1Yu+CwP78YLZlQm/sM6I5oChsOeLaEJ79UippqE7as3yMc9bzrUY12uU7pEoU7PzwDcamRtU+DEAg3+6IY6h5pzxKDCwPGkUCIhZSsbkJ3S+AwW+Gm5EoSife58ZxnrSEfBLtgIwQChTlyFMMJ9Z5saWVYILSUVIQe53C78EXBPryfv0d8HdPDTn4HE1K74bz4Tvg8bweWlhyGRkZZFesa2VltwPtdz4BREVkJThZvNmNfngMTztQi3isQqFU+X9yKGgfen5ONj3+ugtMtRXVpkfgSlooohjoAJBD+endQ2xMIFONvtSPl38+j6LsPUbt3q9jBo8Oj01AxdyYsezeIFNMegeARA27y2BPp9Dz+C5EuELb8VYAZ969FbSUlRfIlUqalF5eIZiGRoNdrvBkEPUsLNosNO7ceQEV5NWQEyPuweIZM3bghP4Ux13fFxXedLEIiI6Xk/0QC4Q1PSHRA8fkgnHrhKETFx0EZrfc8J8SksgYOsYujN9uo97z6SwxKJDxxGQuESBkIDerJAiFCO66l1ab3ep6lFnfvX4WDFLZEK8wU8ud2IVWtR77ZJBK+iPVU76tOLZXikYy+OC8uo1GAREvve7yOW7zJjL15Dlw2RIu4AIHgq8/W/dWY+uJ27DlYJUzLHg9s71KDv9JuJEYrsez9NioQzFbEjJ8KuT4GeR+/An3PUxB36fXIe+UekQhJJiFR0MBq4BcIAWIhQi0Ic17bhoXv7/ZaDwKcfMXD4RKpgVPTExAX73E4rKyoxuHsQtgsdjHpu305SEW+II84CMwuktotCk/MPSuiNnLKX7QWG26ZJnwJGgoE2quk/7iRMCbGiW3Afa0VbQ8S+lsvikGvQcLj4yGLjdwQ0OP1LjsR7ssC4UTohaNcB/oKWFNdgqezNqLI7oldpn+jEEmKcQ78clZJZLgioSNuTunhsSpEWCGBsDvXgUvO0CBGX/cFRysHtK8CWcdXbC3HPW/txoFcWn8OXhKjFfj7g8GIjWorTopXiL0Y6GUvcu4rtIi77DaoOnaH21yDkrkzUbtlORQqhSe5Vj2B4F1ucFOSKe8XJkU0kEAYcRnS/vt10IniRB06v8zYjdmvbBdppz3F64boneVFmmWXy7PW7qYxQzkfaC+GAItAgDgIbCdpzZNOT8DdM4aJVMyRUuwVNShbuwd2U5BnwuWGPt4InbEuY2tz7SIRQeGQJB5kBg2U3ZIhEVYXLpFGgAVCpPXYEdaXrAarq4ows2AfNpvKRFRDw5KsUGNCXCYmJnaGgbbri8Dy+0YzduY4RGrkwPd55yQZhvdRi5c+pVYmkXD3tD04kG8O2koSBms+GoTYKMquGNmFwhzzHp0A++G9nr0WnCQS7HDbbZBGJ8BVUwWXlfahoJe4yxMe61ti8E6WdT4I3lz83mP0wy5G2nOzI0ogFGXV4IP/rMaBzeWiYz0BnXWWBPF3f/gwLTFQ86S+NBkBVjVv3oyAvdKi4lW48ZXT0Htost9pL7JHD9e+PRNggdDOer/QVovVlcVYXlmIQzaTcHRMUKhFWuWzopPRSWOAMsKyJwZ24Yod5KToncQCfuiYJMWQXh6BQIVi2//eUo7nPj2A0mrPVtmBpX83A968pxfUisj5CmxqKNPOjeWz30Ltml8C/AoomyJ5rXqkoqAisgN5wxp9ToqBAsHr7e/zR4BCiehL/42YcVMiSiBQ0w5uLcMfn+zFwa3lwtXCkxsoeBryhlz9FrfADdLcQFy6BsMndsKp56ZHlP9BO3sFcnPDIMACIQxYfCgTYAJMgAkwgfZCgAVCe+lpbicTYAJMgAkwgTAIsEAIAxYfygSYABNgAkygvRBggdBeeprbyQSYABNgAkwgDAIsEMKAxYcyASbABJgAE2gvBFggtJee5nYyASbABJgAEwiDAAuEMGDxoUyACTABJsAE2gsBFgjtpae5nUyACTABJsAEwiDAAiEMWHwoE2ACTIAJMIH2QoAFQnvpaW4nE2ACTIAJMIEwCLBACAMWH8oEmAATYAJMoL0QYIHQXnqa28kEmAATYAJMIAwCLBDCgMWHMgEmwASYABNoLwRYILSXnuZ2MgEmwASYABMIgwALhDBg8aFMgAkwASbABNoLARYI7aWnuZ1MgAkwASbABMIgwAIhDFh8KBNgAkyACTCB9kKABUJ76WluJxNgAkyACTCBMAiwQAgDFh/KBJgAE2ACTKC9EGCB0F56mtvJBJgAE2ACTCAMAiwQwoDFhzIBJsAEmAATaC8EWCC0l57mdjIBJsAEmAATCIMAC4QwYPGhTIAJMAEmwATaCwEWCO2lp7mdTIAJMAEmwATCIMACIQxYfCgTYAJMgAkwgfZCgAVCe+lpbicTYAJMgAkwgTAIsEAIAxYfygSYABNgAkygvRBggdBeeprbyQSYABNgAkwgDAIsEMKAxYcyASbABJgAE2gvBFggtJee5nYyASbABJgAEwiDAAuEMGDxoUyACTABJsAE2gsBFgjtpae5nUyACTABJsAEwiDAAiEMWHwoE2ACTIAJMIH2QuD/BRUqZ3cTcMgAAAAASUVORK5CYII=;imageBorder=#000000;" vertex="1" parent="1">
          <mxGeometry x="668.25" y="710" width="266.67" height="80" as="geometry" />
        </mxCell>
      </root>
    </mxGraphModel>
  </diagram>
</mxfile>
